<?xml version="1.0" encoding="UTF-8" standalone="no"?>
<svg xmlns:inkscape="http://www.inkscape.org/namespaces/inkscape" xmlns:sodipodi="http://sodipodi.sourceforge.net/DTD/sodipodi-0.dtd" xmlns="http://www.w3.org/2000/svg" version="1.1" id="Layer_1"
     x="0px" y="0px" viewBox="0 0 200 200" style="enable-background:new 0 0 200 200;" xml:space="preserve" sodipodi:docname="Beratung.svg" inkscape:version="1.3 (0e150ed6c4, 2023-07-21)"><defs id="defs8"></defs>
    <style type="text/css" id="style1"> .st0{fill:#9c61a5;} </style>
    <g id="g8"> <g id="g1"> <path class="st0"
                                  d="M82.4,97.8c-0.8,0-1.6-0.3-2.2-0.9L58.6,74.3H20.5C11.9,74.3,5,67.4,5,58.9V19.7c0-8.5,6.9-15.5,15.5-15.5 h78.6c8.5,0,15.5,6.9,15.5,15.5v39.2c0,8.5-6.9,15.5-15.5,15.5H85.2l0.2,20.4c0,1.2-0.7,2.4-1.9,2.8 C83.1,97.8,82.8,97.8,82.4,97.8z M20.5,10.3c-5.2,0-9.4,4.2-9.4,9.4v39.2c0,5.2,4.2,9.4,9.4,9.4h39.4c0.8,0,1.6,0.3,2.2,0.9 l17.3,18l-0.1-15.9c0-0.8,0.3-1.6,0.9-2.2c0.6-0.6,1.3-0.9,2.1-0.9h16.9c5.2,0,9.4-4.2,9.4-9.4V19.7c0-5.2-4.2-9.4-9.4-9.4H20.5z"
                                  id="path1"></path> </g>
        <g id="g2" style="fill:#002f3f;fill-opacity:1"> <path class="st0" d="M78.8,56.6h8.7c3.5,0,6.3-2.8,6.3-6.3v0c0-3.5-2.8-6.3-6.3-6.3h-8.7V56.6z" id="path2" style="fill:#002f3f;fill-opacity:1"></path> </g>
        <g id="g3" style="fill:#002f3f;fill-opacity:1"> <path class="st0" d="M71.3,56.6H31.8c-3.5,0-6.3-2.8-6.3-6.3v0c0-3.5,2.8-6.3,6.3-6.3h39.5V56.6z" id="path3" style="fill:#002f3f;fill-opacity:1"></path> </g>
        <g id="g6" style="fill:#002f3f;fill-opacity:1"> <g id="g4" style="fill:#002f3f;fill-opacity:1"> <path class="st0" d="M40.7,21.8h-8.7c-3.5,0-6.3,2.8-6.3,6.3v0c0,3.5,2.8,6.3,6.3,6.3h8.7V21.8z" id="path4"
                                                                                                              style="fill:#002f3f;fill-opacity:1"></path> </g>
            <g id="g5" style="fill:#002f3f;fill-opacity:1"> <path class="st0" d="M48.2,21.8h39.5c3.5,0,6.3,2.8,6.3,6.3v0c0,3.5-2.8,6.3-6.3,6.3H48.2V21.8z" id="path5" style="fill:#002f3f;fill-opacity:1"></path> </g> </g>
        <g id="g7"> <path class="st0"
                          d="M106.6,195.8H178c10.4,0,18.3-9.2,16.9-19.4c-4.3-31.1-19.3-47.4-38.6-52.4c10.3-5.1,17.4-15.8,17.4-28 c0-17.8-14.8-32.1-32.8-31.3c-16.2,0.7-29.3,14-29.8,30.3c-0.4,12.7,6.8,23.8,17.4,29c-19.3,5-34.3,21.2-38.6,52.4 C88.3,186.6,96.3,195.8,106.6,195.8z"
                          id="path6"></path> </g> </g> </svg> 