<?xml version="1.0" encoding="UTF-8" standalone="no"?> <svg xmlns:inkscape="http://www.inkscape.org/namespaces/inkscape" xmlns:sodipodi="http://sodipodi.sourceforge.net/DTD/sodipodi-0.dtd" xmlns="http://www.w3.org/2000/svg" xmlns:svg="http://www.w3.org/2000/svg" version="1.1" id="Layer_1" x="0px" y="0px" viewBox="0 0 200 200" style="enable-background:new 0 0 200 200;" xml:space="preserve" sodipodi:docname="Design-Duotone-\Icon.svg" inkscape:version="1.3 (0e150ed6c4, 2023-07-21)"><defs id="defs3"></defs> <style type="text/css" id="style1"> .st0{fill:#9D62A5;} </style> <g id="g3"> <path class="st0" d="M120.4,36.6h-2.8v54.9c5.2,1.2,9,5.9,9,11.5c0,6.5-5.3,11.8-11.8,11.8c-6.5,0-11.8-5.3-11.8-11.8 c0-5.6,3.9-10.2,9.1-11.5V36.6h-2.8h-5l-25.1,75.5l15.1,48.7h15.1h11.1h15.1l15.1-48.7l-25.1-75.5H120.4z" id="path1"></path> <rect x="93.6" y="168.5" class="st0" width="42.8" height="20" id="rect1"></rect> <path class="st0" d="M169.2,11.5c-5.3,0-9.6,3.9-10.3,8.9h-33.5v-8.9h-22.4v8.9H72.5c-0.7-5.1-5.1-8.9-10.3-8.9 c-5.8,0-10.4,4.7-10.4,10.4c0,5.8,4.7,10.4,10.4,10.4c5.3,0,9.6-3.9,10.3-8.9h29.3C69.4,34.3,52.1,53.7,43,68.8 c-10.7,18-12.3,33.4-12.3,34l3,0.3c0.1-0.6,5.9-55.9,69.4-77v6.2h22.4v-8.9h33.5c0.7,5.1,5.1,8.9,10.3,8.9 c5.8,0,10.4-4.7,10.4-10.4C179.7,16.2,175,11.5,169.2,11.5z" id="path2" style="fill:#002f3f;fill-opacity:1"></path> <path class="st0" d="M20.3,124.3h23.7v-18.9H20.3V124.3z M23.3,108.4h17.8v12.9H23.3V108.4z" id="path3" style="fill:#002f3f;fill-opacity:1"></path> </g> </svg> 