<?xml version="1.0" encoding="UTF-8" standalone="no"?>
<svg
   width="19.202211"
   height="15.574965"
   viewBox="0 0 19.202211 15.574965"
   version="1.1"
   id="svg5"
   sodipodi:docname="icon_vereine.svg"
   inkscape:version="1.3 (0e150ed6c4, 2023-07-21)"
   xmlns:inkscape="http://www.inkscape.org/namespaces/inkscape"
   xmlns:sodipodi="http://sodipodi.sourceforge.net/DTD/sodipodi-0.dtd"
   xmlns="http://www.w3.org/2000/svg"
   xmlns:svg="http://www.w3.org/2000/svg">
  <defs
     id="defs5" />
  <sodipodi:namedview
     id="namedview5"
     pagecolor="#ffffff"
     bordercolor="#000000"
     borderopacity="0.25"
     inkscape:showpageshadow="2"
     inkscape:pageopacity="0.0"
     inkscape:pagecheckerboard="0"
     inkscape:deskcolor="#d1d1d1"
     inkscape:zoom="46.041667"
     inkscape:cx="8.8506787"
     inkscape:cy="5.6579185"
     inkscape:window-width="3440"
     inkscape:window-height="1408"
     inkscape:window-x="1920"
     inkscape:window-y="32"
     inkscape:window-maximized="1"
     inkscape:current-layer="g5" />
  <g
     fill="currentColor"
     id="g5"
     transform="translate(-2.7978402,-6.425086)">
    <path
       d="M 6.2404069,6.6534248 A 4.9142428,4.9142428 0 0 1 10.587958,7.3480636 C 11.252785,7.825044 11.76432,8.4370983 12.110127,9.1200396 11.48178,9.5441953 10.890419,10.046362 10.41292,10.636614 A 8.7078262,8.7078262 0 0 1 8.867599,9.7478903 C 6.8674831,8.3136831 6.2404069,6.6534248 6.2404069,6.6534248 Z M 5.2598983,15.610628 5.2280941,15.591777 A 4.9157572,4.9157572 0 0 1 2.7980926,11.300859 c 0.602054,0.11806 2.1967805,0.515612 3.7747746,1.647217 a 9.1371599,9.1371599 0 0 1 0.9315538,0.766823 c 0.082733,0.07807 0.1620766,0.156029 0.2384214,0.23284 1.0707614,1.09446 1.4473516,2.069345 1.4572161,2.094803 A 4.9362017,4.9362017 0 0 1 5.7278588,15.849253 4.9096996,4.9096996 0 0 1 5.2588971,15.610249 Z"
       opacity=".3"
       id="path1"
       style="opacity:1;fill:#9D62A5;fill-opacity:1;stroke-width:0.757202" />
    <path
       d="m 16.02,8.076 c -2.019,0.194 -4.164,0.8 -5.654,2.29 -1.49,1.49 -2.096,3.635 -2.29,5.653 l 5.903,5.904 c 2.019,-0.195 4.164,-0.8 5.654,-2.29 1.49,-1.49 2.095,-3.635 2.29,-5.654 L 16.019,8.076 Z"
       opacity=".5"
       id="path2"
       style="opacity:1;fill:#002f3f;fill-opacity:1" />
    <path
       fill-rule="evenodd"
       d="M 3.7203138,8.4802584 A 4.899856,4.899856 0 0 1 6.2404069,6.6534248 c 0,0 0.6273886,1.660948 2.6271921,3.0944655 0.542125,0.3895727 1.0678612,0.6768407 1.545946,0.8901037 A 5.1323171,5.1323171 0 0 0 9.5911876,12.05269 c -0.4680419,1.242625 -0.3720721,2.605575 -0.041016,3.865403 a 4.9233292,4.9233292 0 0 1 -0.3504889,0.125451 c -0.0073,-0.02164 -0.3838243,-0.998209 -1.4572153,-2.094802 A 8.5662294,8.5662294 0 0 0 6.9324947,13.21913 9.1295879,9.1295879 0 0 0 6.5728667,12.94808 10.004157,10.004157 0 0 0 2.7984044,11.301553 4.8990988,4.8990988 0 0 1 3.7203133,8.4802628 Z"
       clip-rule="evenodd"
       id="path3"
       style="fill:#002f3f;fill-opacity:1;stroke-width:0.757202" />
    <path
       d="M 19.248,8.061 A 18.998,18.998 0 0 0 16.02,8.077 l 5.903,5.903 c 0.113,-1.17 0.087,-2.296 0.016,-3.228 a 2.895,2.895 0 0 0 -2.691,-2.69 z m -8.496,13.878 c 0.932,0.071 2.059,0.097 3.228,-0.016 L 8.077,16.02 a 18.998,18.998 0 0 0 -0.016,3.228 2.895,2.895 0 0 0 2.691,2.69 z"
       id="path4"
       style="fill:#9D62A5;fill-opacity:1" />
    <path
       fill-rule="evenodd"
       d="m 14.96,12.312 a 0.525,0.525 0 0 1 0.742,0 l 0.622,0.622 0.621,-0.622 a 0.5250269,0.5250269 0 1 1 0.743,0.742 l -0.622,0.622 0.622,0.622 A 0.525,0.525 0 1 1 16.946,15.04 L 16.324,14.419 15.742,15 l 0.622,0.622 a 0.525,0.525 0 0 1 -0.742,0.742 L 15,15.742 l -0.581,0.582 0.621,0.621 a 0.5250269,0.5250269 0 1 1 -0.742,0.743 l -0.622,-0.622 -0.622,0.622 a 0.525,0.525 0 1 1 -0.742,-0.742 l 0.622,-0.622 -0.622,-0.622 A 0.525,0.525 0 1 1 13.054,14.96 L 13.676,15.581 14.258,15 13.636,14.378 a 0.525,0.525 0 0 1 0.742,-0.742 L 15,14.258 15.581,13.676 14.96,13.054 a 0.525,0.525 0 0 1 0,-0.742 z"
       clip-rule="evenodd"
       id="path5"
       style="fill:#fff;fill-opacity:1" />
  </g>
</svg>
