<?xml version="1.0" encoding="UTF-8" standalone="no"?>
<svg
   viewBox="0 0 208 192"
   version="1.1"
   id="svg3"
   sodipodi:docname="icon_gewerbe.svg"
   inkscape:version="1.3 (0e150ed6c4, 2023-07-21)"
   width="208"
   height="192"
   xmlns:inkscape="http://www.inkscape.org/namespaces/inkscape"
   xmlns:sodipodi="http://sodipodi.sourceforge.net/DTD/sodipodi-0.dtd"
   xmlns="http://www.w3.org/2000/svg"
   xmlns:svg="http://www.w3.org/2000/svg">
  <defs
     id="defs3" />
  <sodipodi:namedview
     id="namedview3"
     pagecolor="#ffffff"
     bordercolor="#000000"
     borderopacity="0.25"
     inkscape:showpageshadow="2"
     inkscape:pageopacity="0.0"
     inkscape:pagecheckerboard="0"
     inkscape:deskcolor="#d1d1d1"
     inkscape:zoom="4.3164064"
     inkscape:cx="114.09954"
     inkscape:cy="132.63348"
     inkscape:window-width="3440"
     inkscape:window-height="1408"
     inkscape:window-x="1920"
     inkscape:window-y="32"
     inkscape:window-maximized="1"
     inkscape:current-layer="svg3" />
  <path
     id="path8"
     style="color:#000000;fill:#9D62A5;fill-opacity:1;stroke-linecap:round;stroke-linejoin:round;-inkscape-stroke:none"
     d="m 208,126.30078 c -1.97554,1.1487 -3.96856,2.26344 -5.97656,3.34375 -2.008,1.08031 -4.03163,2.12527 -6.07032,3.13672 -2.03868,1.01145 -4.09255,1.98757 -6.16015,2.92969 -2.0676,0.94211 -4.14744,1.85036 -6.24219,2.72265 -2.09474,0.8723 -4.2041,1.70972 -6.32422,2.51172 -2.12011,0.80201 -4.25277,1.56955 -6.39648,2.30078 -2.14371,0.73124 -4.29736,1.42596 -6.46289,2.08594 -2.16554,0.65999 -4.34176,1.28479 -6.52735,1.87305 -2.18558,0.58826 -4.38012,1.14019 -6.58398,1.65625 -2.20386,0.51605 -4.41636,0.99607 -6.63672,1.43945 -2.22036,0.44338 -4.45046,0.85049 -6.68555,1.2207 -2.23508,0.37022 -4.47656,0.70342 -6.72461,1 -2.24804,0.29659 -4.50249,0.55683 -6.76171,0.7793 -2.25923,0.22247 -4.52239,0.40681 -6.79102,0.55469 -2.26863,0.14788 -4.54209,0.25921 -6.81836,0.33203 -2.27626,0.0728 -4.55576,0.1082 -6.83789,0.10547 -2.28255,0.006 -4.563117,-0.0277 -6.839844,-0.0977 -2.276727,-0.07 -4.549245,-0.17677 -6.818359,-0.32226 -2.269114,-0.1455 -4.535213,-0.32833 -6.794922,-0.54883 -2.259709,-0.22051 -4.513209,-0.47841 -6.761719,-0.77344 -2.24851,-0.29503 -4.491044,-0.62702 -6.726562,-0.99609 -2.235519,-0.36908 -4.464812,-0.77611 -6.685547,-1.21875 -2.220735,-0.44264 -4.432561,-0.92178 -6.636719,-1.4375 -2.204158,-0.51572 -4.400149,-1.06794 -6.585937,-1.65625 -2.185788,-0.58832 -4.361719,-1.21262 -6.527344,-1.87305 -2.165625,-0.66043 -4.321174,-1.35778 -6.464844,-2.08984 -2.14367,-0.73206 -4.276563,-1.49953 -6.396484,-2.30274 -2.119922,-0.80321 -4.225932,-1.64174 -6.320313,-2.51562 -2.09438,-0.87388 -4.177094,-1.7825 -6.24414,-2.72656 -2.067047,-0.94407 -4.11833,-1.92374 -6.15625,-2.9375 -2.03792,-1.01377 -4.0613591,-2.06155 -6.0683598,-3.14454 C 3.9656556,128.56936 1.9742883,127.4525 0,126.30078 V 176 c 0,8.72559 7.274404,16 16,16 h 176 c 8.72559,0 16,-7.27441 16,-16 z"
     sodipodi:nodetypes="cssssssssssssssscssssssssssssssscssssc" />
  <path
     id="path9"
     style="color:#000000;fill:#002f3f;stroke-linecap:round;stroke-linejoin:round;-inkscape-stroke:none"
     d="M 16,32 C 7.274404,32 0,39.274405 0,48 v 82.30078 c 1.9742883,1.15172 3.9656556,2.26858 5.9726562,3.35156 2.0070007,1.08299 4.0304398,2.13077 6.0683598,3.14454 2.03792,1.01376 4.089203,1.99343 6.15625,2.9375 2.067046,0.94406 4.14976,1.85268 6.24414,2.72656 2.094381,0.87388 4.200391,1.71241 6.320313,2.51562 2.119921,0.80321 4.252814,1.57068 6.396484,2.30274 2.14367,0.73206 4.299219,1.42941 6.464844,2.08984 2.165625,0.66043 4.341556,1.28473 6.527344,1.87305 2.185788,0.58831 4.381779,1.14053 6.585937,1.65625 2.204158,0.51572 4.415984,0.99486 6.636719,1.4375 2.220735,0.44264 4.450028,0.84967 6.685547,1.21875 2.235518,0.36907 4.478052,0.70106 6.726562,0.99609 2.24851,0.29503 4.50201,0.55293 6.761719,0.77344 2.259709,0.2205 4.525808,0.40333 6.794922,0.54883 2.269114,0.14549 4.541632,0.25226 6.818359,0.32226 2.276727,0.07 4.557294,0.10363 6.839844,0.0977 2.28213,0.003 4.56163,-0.0326 6.83789,-0.10547 2.27627,-0.0728 4.54973,-0.18415 6.81836,-0.33203 2.26863,-0.14788 4.53179,-0.33222 6.79102,-0.55469 2.25922,-0.22247 4.51367,-0.48271 6.76171,-0.7793 2.24805,-0.29658 4.48953,-0.62978 6.72461,-1 2.23509,-0.37021 4.46519,-0.77732 6.68555,-1.2207 2.22036,-0.44338 4.43286,-0.9234 6.63672,-1.43945 2.20386,-0.51606 4.3984,-1.06799 6.58398,-1.65625 2.18559,-0.58826 4.36181,-1.21306 6.52735,-1.87305 2.16553,-0.65998 4.31918,-1.3547 6.46289,-2.08594 2.14371,-0.73123 4.27637,-1.49877 6.39648,-2.30078 2.12012,-0.802 4.22948,-1.63942 6.32422,-2.51172 2.09475,-0.87229 4.17459,-1.78054 6.24219,-2.72265 2.0676,-0.94212 4.12147,-1.91824 6.16015,-2.92969 2.03869,-1.01145 4.06232,-2.05641 6.07032,-3.13672 2.008,-1.08031 4.00102,-2.19505 5.97656,-3.34375 V 48 c 0,-8.725595 -7.27441,-16 -16,-16 z"
     sodipodi:nodetypes="sscssssssssssssssscssssssssssssssscsss" />
  <path
     d="M 144,40 V 24 A 16,16 0 0 0 128,8 H 80 A 16,16 0 0 0 64,24 v 16"
     fill="none"
     stroke="#000"
     stroke-linecap="round"
     stroke-linejoin="round"
     stroke-width="16"
     id="path2"
     style="stroke:#002f3f;stroke-opacity:1" />
  <line
     fill="none"
     stroke="#000"
     stroke-linecap="round"
     stroke-linejoin="round"
     stroke-width="16"
     x1="92"
     x2="116"
     y1="98"
     y2="98"
     id="line3"
     style="fill:#ffffff;fill-opacity:1;stroke:#ffffff;stroke-opacity:1" />
</svg>
