<?xml version="1.0" encoding="UTF-8" standalone="no"?>
<svg
   version="1.1"
   id="Layer_1"
   x="0px"
   y="0px"
   viewBox="0 0 200 200"
   style="enable-background:new 0 0 200 200;"
   xml:space="preserve"
   sodipodi:docname="Qualitaet-Werbefant.svg"
   inkscape:version="1.3.2 (091e20ef0f, 2023-11-25, custom)"
   xmlns:inkscape="http://www.inkscape.org/namespaces/inkscape"
   xmlns:sodipodi="http://sodipodi.sourceforge.net/DTD/sodipodi-0.dtd"
   xmlns="http://www.w3.org/2000/svg"
   xmlns:svg="http://www.w3.org/2000/svg"><sodipodi:namedview
   id="namedview1"
   pagecolor="#ffffff"
   bordercolor="#000000"
   borderopacity="0.25"
   inkscape:showpageshadow="2"
   inkscape:pageopacity="0.0"
   inkscape:pagecheckerboard="0"
   inkscape:deskcolor="#d1d1d1"
   inkscape:zoom="4.0941483"
   inkscape:cx="118.21751"
   inkscape:cy="171.46423"
   inkscape:window-width="2560"
   inkscape:window-height="1404"
   inkscape:window-x="0"
   inkscape:window-y="0"
   inkscape:window-maximized="1"
   inkscape:current-layer="g9" /><defs
   id="defs10" /> <style
   type="text/css"
   id="style1"> .st0{fill:#9c61a5;} .st1{fill:#383834;} .st2{fill:#FFFFFF;} </style> <g
   id="g1"> <path
   class="st0"
   d="M154,16.1l-24.4-4.8l-58.8-0.1L46.4,16L5,30.8l4.4,41.9l27.1,0.7c1.4,0,2.1,0.5,2.4,0.9c1.1,1.2,1.3,3.3,1.3,4 l0,0l-3.6,95.4l1.6,0.9c1.1,0.6,26.4,14.2,61.8,14.2s60.7-13.6,61.8-14.2l1.6-0.9l-3.6-95.4l0,0c0-0.5,0.1-2.8,1.3-4 c0.4-0.4,1-0.9,2.5-0.9l27.1-0.7l4.4-41.9L154,16.1z M76.7,17.9c0.3-0.5,0.9-0.8,1.4-0.8h43.7c0.5,0,1.1,0.3,1.4,0.8 c0.4,0.6,0.1,1.7-0.7,3c-5.2,7-13.5,11.4-22.6,11.4s-17.4-4.4-22.6-11.4C76.7,19.6,76.4,18.5,76.7,17.9z"
   id="path1" /> </g> <g
   id="g6"> <g
   id="g4"> <g
   id="g2"> <path
   class="st1"
   d="M328.8,155.7c-0.3,0-0.6-0.1-0.9-0.2c-2.2-1.3-4-3.1-5.2-5.3c-4-7-1.7-16,5.3-20c3.4-2,7.3-2.5,11.1-1.4 c3.8,1,6.9,3.4,8.9,6.8c1.3,2.2,1.9,4.6,2,7.1c0,1-0.8,1.8-1.7,1.8c-1,0-1.8-0.8-1.8-1.7c0-1.9-0.5-3.8-1.5-5.4 c-1.5-2.6-3.9-4.4-6.8-5.2c-2.9-0.8-5.9-0.4-8.4,1.1c-5.3,3.1-7.1,9.9-4,15.2c1,1.7,2.3,3.1,4,4c0.8,0.5,1.1,1.6,0.6,2.4 C330,155.4,329.4,155.7,328.8,155.7z"
   id="path2" /> </g> <g
   id="g3"> <path
   class="st1"
   d="M326.7,163.8c-0.2,0-0.5-0.1-0.7-0.2c-4.3-2-7.8-5.2-10.2-9.3c-3-5.3-3.9-11.4-2.3-17.2 c1.5-5.9,5.3-10.8,10.5-13.8c5.2-3,11.3-3.8,17.2-2.2c5.8,1.6,10.7,5.4,13.8,10.6c2.4,4.1,3.4,8.7,3,13.4c-0.1,1-0.9,1.7-1.9,1.6 c-1-0.1-1.7-0.9-1.6-1.9c0.3-3.9-0.5-7.9-2.5-11.3c-2.6-4.5-6.7-7.6-11.7-9c-4.9-1.3-10.1-0.7-14.5,1.9 c-4.4,2.6-7.6,6.7-8.9,11.6c-1.3,5-0.6,10.1,2,14.6c2,3.5,5,6.2,8.6,7.9c0.9,0.4,1.3,1.5,0.9,2.3 C328,163.4,327.4,163.8,326.7,163.8z"
   id="path3" /> </g> </g> <g
   id="g5"> <path
   class="st1"
   d="M371.8,172.8c0.4,0,0.8-0.3,0.9-0.8c0.1-0.5-0.1-1-0.5-1.3l-35.3-27.1c-0.3-0.3-0.8-0.3-1.1-0.1 c-0.3,0.2-0.5,0.6-0.4,1l5.8,44.2c0.1,0.5,0.4,0.9,0.8,1.1c0.4,0.2,0.9,0,1.1-0.4l9.2-7.9l8,13.8l8-4.7l-8-13.8L371.8,172.8z"
   id="path4" /> <path
   class="st1"
   d="M360.3,195.9c0,0-0.1,0-0.1,0c-0.1,0-0.2-0.1-0.2-0.2l-7.8-13.4l-8.8,7.6c-0.3,0.5-0.9,0.7-1.5,0.5 c-0.6-0.2-1-0.8-1.1-1.4l-5.8-44.2c-0.1-0.6,0.2-1.1,0.6-1.4c0.5-0.3,1.1-0.2,1.5,0.1l35.3,27.1c0.5,0.4,0.8,1,0.7,1.6 c-0.1,0.6-0.6,1.1-1.2,1.1l-10.9,4l7.7,13.4c0.1,0.2,0,0.4-0.1,0.5l-8,4.7C360.5,195.9,360.4,195.9,360.3,195.9z M352.3,181.3 C352.4,181.3,352.4,181.3,352.3,181.3c0.2,0,0.3,0.1,0.3,0.2l7.8,13.5l7.4-4.3l-7.8-13.5c-0.1-0.1-0.1-0.2,0-0.3 c0-0.1,0.1-0.2,0.2-0.2l11.4-4.1c0,0,0.1,0,0.1,0c0.3,0,0.4-0.2,0.5-0.5c0.1-0.3-0.1-0.7-0.4-0.9l-35.3-27.1 c-0.2-0.2-0.5-0.2-0.7-0.1c-0.2,0.1-0.3,0.4-0.3,0.6l5.8,44.2c0,0.3,0.3,0.6,0.6,0.7c0.3,0.1,0.5,0,0.6-0.2c0,0,0-0.1,0.1-0.1 l9.2-7.9C352.2,181.3,352.2,181.3,352.3,181.3z"
   id="path5" /> </g> </g> <g
   id="g9"
   style="stroke:none;stroke-opacity:1;fill:#002f3f;fill-opacity:1"> <path
   class="st1"
   d="M161.2,157.6c-0.5-0.2-1.1-0.2-1.9-0.2c-0.5,0-0.9,0-1.4,0c-0.5,0-1,0-1.5,0c-0.6,0-1.4,0-2.2-0.2l-6.2,29.2 l10.7-3.6l8.3,7.7l1.3-5.9l-5.6-26.2C162.2,158.1,161.7,157.7,161.2,157.6z"
   id="path6"
   style="stroke:none;stroke-opacity:1;fill:#002f3f;fill-opacity:1" /> <path
   class="st1"
   d="M182.2,157.4c-0.5,0-1,0-1.5,0c-0.5,0-1,0-1.4,0c-0.8,0-1.5,0.1-1.9,0.2c-0.8,0.3-1.7,1-2.7,1.7 c-1.6,1.3-3.2,2.6-5.3,2.6c-1.6,0-2.9-0.7-4.1-1.7l6.4,30.2l8.3-7.7l10.7,3.6l-6.2-29.2C183.6,157.4,182.7,157.4,182.2,157.4z"
   id="path7"
   style="stroke:none;stroke-opacity:1;fill:#002f3f;fill-opacity:1" /> <circle
   style="fill:#ffffff;fill-opacity:1;stroke:none;stroke-width:3.38268;stroke-linecap:square;stroke-miterlimit:7.4;stroke-opacity:1"
   id="path11"
   cx="168.90497"
   cy="133.10408"
   r="22.47963" /><path
   class="st1"
   d="M194.4,128.3c0.4-1.2,1-2.6,0.5-3.9c-0.4-1.2-1.6-2-2.6-2.7l-0.5-0.3c-1.1-0.7-2.3-1.5-3.2-2.6 c-0.7-1-1.1-2.1-1.4-3.2l-0.1-0.5c-0.4-1.5-0.8-3.4-2.3-4.2c-0.2-0.1-0.3-0.1-0.4-0.2l-0.1,0c-0.1,0-0.2-0.1-0.3-0.1l-0.1,0 c-0.5-0.1-0.9-0.1-1.4-0.2l-0.4,0c-0.9,0-1.9,0.1-2.8,0.1l-1.4-0.1c-0.1,0-0.3,0-0.4-0.1l-0.2,0c-1.4-0.3-2.5-1.1-3.6-2l-0.3-0.3 c-1.1-0.8-2.2-1.9-3.6-2.1c-1.5-0.3-2.9,0.7-4,1.6l-0.5,0.4c-1.2,1-2.5,2-4,2.3l-0.1,0c-0.2,0-0.3,0.1-0.5,0.1l-1.4,0.1 c-0.9,0-1.9-0.1-2.8-0.1l-0.5,0c-0.3,0-0.6,0-0.9,0.1l-0.1,0c-0.1,0-0.2,0-0.3,0.1l0,0l-0.1,0c-0.1,0-0.2,0-0.3,0.1l-0.1,0 c-0.1,0-0.2,0.1-0.2,0.1l-0.1,0.1c-0.1,0.1-0.2,0.1-0.3,0.2l0,0c-1.6,1.2-1.8,3.7-2.3,5.4c-0.7,2.1-1.9,3.4-3.8,4.6l-0.4,0.3 c-1.2,0.8-2.7,1.6-3.2,3c-0.5,1.5,0.2,3.1,0.7,4.5l0.2,0.5c0.5,1.4,0.9,2.9,0.7,4.4c-0.2,1.6-0.9,3-1.4,4.5c-0.4,1.2-0.7,2.4,0,3.6 c0.6,1.1,1.8,1.8,2.9,2.5l0.1,0.1c2.1,1.4,3.5,2.8,4.3,5.2c0.5,1.7,0.8,4.3,2.6,5.3l0.1,0.1c0.1,0,0.1,0.1,0.2,0.1l0.2,0.1 c0.1,0,0.2,0.1,0.3,0.1l0.2,0c0.5,0.1,0.9,0.1,1.4,0.2l0.3,0c1,0,1.9-0.1,2.9-0.1l0.2,0l0.7,0c0.1,0,0.2,0,0.4,0l0.2,0 c0.1,0,0.3,0,0.4,0.1l0.2,0c3,0.6,4.9,4.4,8,4.4c3.1,0,5-3.8,8-4.4l0.2,0c0.2,0,0.3-0.1,0.5-0.1l1.4-0.1c0.9,0,1.9,0.1,2.8,0.1h0.2 l0.2,0c0.4,0,0.7,0,1.1-0.1l0.1,0c0.1,0,0.2,0,0.3-0.1l0.1,0c0.1,0,0.2-0.1,0.3-0.1l0.1-0.1c0.1,0,0.2-0.1,0.2-0.1l0.1-0.1 c1.5-0.8,1.9-2.8,2.3-4.2l0.1-0.5c0.7-2.5,1.8-4.1,4-5.5l0.4-0.3c1.1-0.7,2.3-1.4,3-2.6c0.7-1.2,0.3-2.6-0.1-3.9 c-0.5-1.5-1.2-2.9-1.3-4.4c-0.2-1.6,0.4-3.2,1-4.7L194.4,128.3z M182.4,148.7c-6.7,5.5-16.3,6.2-23.7,1.8 c-7.4-4.4-11.3-13.2-9.6-21.7c1.9-9.5,10.5-16.5,20.2-16.5c8.6,0,16.5,5.6,19.4,13.6C191.5,134,189,143.3,182.4,148.7z"
   id="path8"
   style="stroke:none;stroke-opacity:1;fill:#002f3f;fill-opacity:1" /> <path
   class="st1"
   d="M169.3,114.7c-10,0-18.2,8.2-18.2,18.2c0,10,8.2,18.2,18.2,18.2c10,0,18.2-8.2,18.2-18.2 C187.5,122.9,179.3,114.7,169.3,114.7z M186.4,132.9c0,9.4-7.7,17.1-17.1,17.1c-9.4,0-17.1-7.7-17.1-17.1c0-9.4,7.7-17.1,17.1-17.1 C178.7,115.8,186.4,123.5,186.4,132.9z"
   id="path9"
   style="stroke:none;stroke-opacity:1;fill:#002f3f;fill-opacity:1" /> <polygon
   class="st1"
   points="169.3,120.1 173.5,127.5 181.8,129.2 176.1,135.6 177,144 169.3,140.5 161.5,144 162.4,135.6 156.7,129.2 165,127.5 "
   id="polygon9"
   style="stroke:none;stroke-opacity:1;fill:#002f3f;fill-opacity:1" /> </g> <path
   class="st2"
   d="M129.4,76.2c0,0-3.3,19.2-13.6,3.4c-10.3-15.8-0.4-16.3-18.6-18.7S66.6,60,66.1,76s-0.8,36.8-0.8,36.8l8.2,0.4 c0,0-1.9-16.3,2.5-16.5s22-2.9,22.1,5.7c0.1,8.6,0,11,0,11l7.7-0.6c0,0-3.8-24.9,7-21.1c10.8,3.8,21.3,3.1,21.7-15.7L129.4,76.2z M78.8,89.3c-16.8-13.7,17.7-24.9,26.6-20.8C105.4,68.5,95.6,102.9,78.8,89.3z M108,78.1c-0.6,0-1.1-0.5-1.1-1.2s0.5-1.2,1.1-1.2 c0.6,0,1.1,0.5,1.1,1.2C109.1,77.6,108.6,78.1,108,78.1z"
   id="path10"
   style="fill:#002f3f;fill-opacity:1" /> </svg>
