<?xml version="1.0" encoding="UTF-8" standalone="no"?> <svg xmlns:inkscape="http://www.inkscape.org/namespaces/inkscape" xmlns:sodipodi="http://sodipodi.sourceforge.net/DTD/sodipodi-0.dtd" xmlns="http://www.w3.org/2000/svg" xmlns:svg="http://www.w3.org/2000/svg" version="1.1" id="Layer_1" x="0px" y="0px" viewBox="0 0 200 200" style="enable-background:new 0 0 200 200;" xml:space="preserve" sodipodi:docname="Region.svg" inkscape:version="1.3 (0e150ed6c4, 2023-07-21)"><defs id="defs3"></defs> <style type="text/css" id="style1"> .st0{fill-rule:evenodd;clip-rule:evenodd;fill:#9c61a5;} .st1{fill:#9c61a5;} </style> <g id="g3"> <path class="st0" d="M14.2,146.8c0-13.9,11.2-25.1,25.1-25.1c13.9,0,25.1,11.2,25.1,25.1c0,13.9-11.2,25.1-25.1,25.1 C25.5,171.9,14.2,160.7,14.2,146.8" id="path1" style="fill:#002f3f;fill-opacity:1"></path> <path class="st1" d="M148.3,5.5c-2.8-1-5.5-0.2-7.8,0.1c-4.6,40.9,29.1,74.6-18.3,105.8c-20.7,13.6-40,15.3-55.6,19.8 c1.3,2.3,2.3,4.8,3,7.4c0.7,2.6,1.1,5.4,1.1,8.2c0,11.4-6,21.3-15.1,26.8c15.4,18.6,39,22.7,53.5,21.1 c60.8-6.9,35.7-54.3,63.3-80.2C205.5,83.5,169.2,12.9,148.3,5.5" id="path2"></path> <path class="st1" d="M139.8,5.7c-26.5,4.2-18,53.5-59.9,56.8c-30.6,2.4-36.4,26-38.7,53c8.5,0.5,16,4.3,21.4,10.2 c15.5-4.6,33.1-7.5,53.6-20c39.7-24.1,10.3-57.6,23.5-99.8L139.8,5.7L139.8,5.7z" id="path3"></path> </g> </svg> 