<?xml version="1.0" encoding="UTF-8" standalone="no"?>
<!-- Created with Inkscape (http://www.inkscape.org/) -->

<svg
   xmlns:dc="http://purl.org/dc/elements/1.1/"
   xmlns:cc="http://creativecommons.org/ns#"
   xmlns:rdf="http://www.w3.org/1999/02/22-rdf-syntax-ns#"
   xmlns:svg="http://www.w3.org/2000/svg"
   xmlns="http://www.w3.org/2000/svg"
   xmlns:sodipodi="http://sodipodi.sourceforge.net/DTD/sodipodi-0.dtd"
   xmlns:inkscape="http://www.inkscape.org/namespaces/inkscape"
   width="210mm"
   height="150mm"
   viewBox="0 0 210 150"
   version="1.1"
   id="svg8"
   inkscape:version="0.92.4 (5da689c313, 2019-01-14)"
   sodipodi:docname="ROOTED MERCH LOGO.svg">
  <defs
     id="defs2">
    <clipPath
       id="clipPath2567-8"
       clipPathUnits="userSpaceOnUse">
      <path
         inkscape:connector-curvature="0"
         id="path2569-4"
         d="m 54.519928,163.71811 -1.312496,-56.93375 21.657788,-2.78927 21.493636,5.57854 c 0,0 5.578544,16.07925 5.578544,16.73562 0,0.65625 -3.773709,16.7355 -3.773709,16.7355 l 0.328186,22.64223 z"
         style="fill:none;stroke:#000000;stroke-width:0.26458332px;stroke-linecap:butt;stroke-linejoin:miter;stroke-opacity:1" />
    </clipPath>
    <clipPath
       clipPathUnits="userSpaceOnUse"
       id="clipPath5948-6-3-9-3">
      <path
         d="M 0,283.465 H 283.465 V 0 H 0 Z"
         id="path5946-4-5-9-6"
         inkscape:connector-curvature="0" />
    </clipPath>
    <clipPath
       clipPathUnits="userSpaceOnUse"
       id="clipPath870">
      <path
         style="fill:none;stroke:#000000;stroke-width:0.26458332px;stroke-linecap:butt;stroke-linejoin:miter;stroke-opacity:1"
         d="M 76.729167,49.803571 76.540175,108.20089 H 146.65476 L 148.73363,47.535714 76.162202,47.346727 Z"
         id="path872"
         inkscape:connector-curvature="0" />
    </clipPath>
    <clipPath
       clipPathUnits="userSpaceOnUse"
       id="clipPath891">
      <path
         style="fill:none;stroke:#000000;stroke-width:0.26458332px;stroke-linecap:butt;stroke-linejoin:miter;stroke-opacity:1"
         d="m 27.002764,111.61049 162.059706,-0.21322 v 11.72801 l -162.059706,-5.3e-4 z"
         id="path893"
         inkscape:connector-curvature="0" />
    </clipPath>
    <clipPath
       id="clipPath2567-8-3"
       clipPathUnits="userSpaceOnUse">
      <path
         inkscape:connector-curvature="0"
         id="path2569-4-8"
         d="m 54.519928,163.71811 -1.312496,-56.93375 21.657788,-2.78927 21.493636,5.57854 c 0,0 5.578544,16.07925 5.578544,16.73562 0,0.65625 -3.773709,16.7355 -3.773709,16.7355 l 0.328186,22.64223 z"
         style="fill:none;stroke:#000000;stroke-width:0.26458332px;stroke-linecap:butt;stroke-linejoin:miter;stroke-opacity:1" />
    </clipPath>
    <clipPath
       clipPathUnits="userSpaceOnUse"
       id="clipPath5948-6-3-9-3-7">
      <path
         d="M 0,283.465 H 283.465 V 0 H 0 Z"
         id="path5946-4-5-9-6-0"
         inkscape:connector-curvature="0" />
    </clipPath>
    <clipPath
       clipPathUnits="userSpaceOnUse"
       id="clipPath1118">
      <path
         style="fill:none;stroke:#000000;stroke-width:0.26458332px;stroke-linecap:butt;stroke-linejoin:miter;stroke-opacity:1"
         d="m 15.501633,259.98317 0.267269,17.23889 167.177088,-1.20272 -1.33635,-17.90706 z"
         id="path1120"
         inkscape:connector-curvature="0" />
    </clipPath>
    <clipPath
       clipPathUnits="userSpaceOnUse"
       id="clipPath1118-8">
      <path
         style="fill:none;stroke:#000000;stroke-width:0.26458332px;stroke-linecap:butt;stroke-linejoin:miter;stroke-opacity:1"
         d="m 15.501633,259.98317 0.267269,17.23889 167.177088,-1.20272 -1.33635,-17.90706 z"
         id="path1120-8"
         inkscape:connector-curvature="0" />
    </clipPath>
  </defs>
  <sodipodi:namedview
     id="base"
     pagecolor="#ffffff"
     bordercolor="#666666"
     borderopacity="1.0"
     inkscape:pageopacity="0.0"
     inkscape:pageshadow="2"
     inkscape:zoom="0.49497475"
     inkscape:cx="15.716946"
     inkscape:cy="684.69683"
     inkscape:document-units="mm"
     inkscape:current-layer="g1180"
     showgrid="false"
     inkscape:window-width="1920"
     inkscape:window-height="986"
     inkscape:window-x="-11"
     inkscape:window-y="-11"
     inkscape:window-maximized="1" />
  <metadata
     id="metadata5">
    <rdf:RDF>
      <cc:Work
         rdf:about="">
        <dc:format>image/svg+xml</dc:format>
        <dc:type
           rdf:resource="http://purl.org/dc/dcmitype/StillImage" />
        <dc:title></dc:title>
      </cc:Work>
    </rdf:RDF>
  </metadata>
  <g
     inkscape:label="Ebene 1"
     inkscape:groupmode="layer"
     id="layer1"
     transform="translate(0,-147)">
    <text
       xml:space="preserve"
       style="font-style:normal;font-weight:normal;font-size:10.58333302px;line-height:1.25;font-family:sans-serif;letter-spacing:0px;word-spacing:0px;fill:#000000;fill-opacity:1;stroke:none;stroke-width:0.26458332"
       x="84.666664"
       y="146.1875"
       id="text1023"><tspan
         sodipodi:role="line"
         id="tspan1021"
         x="84.666664"
         y="155.843"
         style="stroke-width:0.26458332" /></text>
    <g
       id="g1180">
      <g
         id="g940"
         transform="translate(0,134.70384)">
        <g
           id="g1061">
          <path
             transform="matrix(1.3485589,0,0,1.3485589,-41.736772,-29.793393)"
             clip-path="url(#clipPath870)"
             inkscape:connector-curvature="0"
             id="path826-8"
             d="m 44.367735,125.07672 c -3.359817,-1.02571 -5.135899,-4.2518 -4.169991,-7.57441 0.479701,-1.65011 2.072831,-3.29266 3.726269,-3.84184 2.175044,-0.72243 4.621058,-0.16159 6.177895,1.41652 1.265048,1.28231 1.617061,2.20119 1.619922,4.22852 0.0023,1.59476 -0.06771,1.93203 -0.582337,2.80747 -1.431371,2.43491 -4.337606,3.70686 -6.771758,2.96374 z m 2.381366,-2.79228 c 0.961468,-0.26703 2.027903,-1.43636 2.213822,-2.42739 0.3869,-2.06235 -1.591727,-4.04098 -3.654083,-3.65407 -0.983791,0.18456 -2.160043,1.25191 -2.451431,2.22447 -0.546616,1.82444 0.912993,3.86751 2.896362,4.05415 0.11728,0.011 0.565179,-0.0777 0.99533,-0.19716 z m 13.333724,2.69684 c -2.908199,-1.08417 -4.587949,-3.95425 -3.992618,-6.82195 0.823518,-3.96685 5.192279,-5.99291 8.748665,-4.05729 2.013686,1.09598 2.984863,2.79958 2.984863,5.23591 0,2.40155 -1.123331,4.2392 -3.257519,5.32897 -1.138309,0.58125 -3.351247,0.73641 -4.483391,0.31436 z m 3.558683,-3.08477 c 1.359162,-0.77725 1.834468,-2.9725 0.930373,-4.297 -1.02607,-1.5032 -2.991334,-1.87345 -4.446029,-0.83763 -1.352585,0.96313 -1.674762,2.89755 -0.717267,4.30663 0.297429,0.43772 0.561308,0.79727 0.586401,0.79904 0.02508,0.002 0.429448,0.1426 0.898568,0.31297 0.941062,0.34174 1.81093,0.25186 2.747954,-0.28401 z m 103.485972,3.07171 c -2.88145,-1.02779 -4.58845,-3.93885 -3.99263,-6.80889 0.82434,-3.97081 5.19214,-5.99299 8.75549,-4.05357 0.96598,0.52574 2.33833,1.83856 2.33833,2.23688 0,0.0762 -0.51258,0.40688 -1.13907,0.73489 l -1.13908,0.59639 -0.86367,-0.69406 c -1.14689,-0.92168 -2.24778,-1.06919 -3.44001,-0.46096 -3.34955,1.70882 -1.44372,6.72719 2.18382,5.75038 0.4674,-0.12585 1.11498,-0.5127 1.43909,-0.85965 l 0.58928,-0.63083 1.06312,0.53871 c 0.5847,0.29631 1.11469,0.62218 1.17773,0.72418 0.18291,0.29595 -0.86987,1.57383 -1.82516,2.21541 -1.53099,1.02822 -3.49683,1.29981 -5.14724,0.71112 z M 26.882353,119.30551 v -5.75739 l 3.038619,0.003 c 2.755896,0.003 3.117574,0.0482 3.887217,0.48413 1.298933,0.73568 1.848948,1.85791 1.765807,3.6029 -0.05872,1.23248 -0.160733,1.54061 -0.754753,2.27979 -0.377769,0.47007 -0.686853,0.90996 -0.686853,0.97752 0,0.0675 0.479782,0.97391 1.066182,2.01415 0.586399,1.04023 1.066181,1.95014 1.066181,2.02204 0,0.0719 -0.695684,0.13009 -1.545964,0.12932 l -1.545963,-0.002 -1.026891,-1.8111 c -0.976216,-1.72123 -1.06303,-1.8106 -1.7592,-1.8106 h -0.732309 v 1.81251 1.81251 H 28.26839 26.882353 Z m 5.757382,-1.06619 c 0.546078,-0.54608 0.542361,-1.16352 -0.01033,-1.71623 -0.357325,-0.35732 -0.658027,-0.42522 -1.652582,-0.37316 l -1.215775,0.0637 -0.06395,1.22611 -0.06395,1.22611 h 1.290058 c 1.005745,0 1.38405,-0.094 1.716534,-0.42648 z m 41.745375,2.40898 -0.05767,-4.43472 -1.439344,-0.063 -1.439347,-0.063 v -1.27409 -1.27409 l 4.318038,0.0577 4.318032,0.0577 v 1.1728 1.1728 l -1.43505,0.0629 -1.435042,0.0629 -0.05761,4.41502 -0.05761,4.41501 -1.328372,0.0633 -1.32837,0.0633 z m 9.857829,-1.34279 v -5.75739 h 3.62501 3.62502 v 1.27942 1.27943 h -2.23898 -2.23898 v 0.85294 0.85294 h 2.03592 2.03592 l -0.0635,1.33273 -0.0635,1.33273 -1.97244,0.0613 -1.97243,0.0613 v 0.82213 c 0,1.02224 0.14,1.081 2.57627,1.081 h 1.90169 v 1.27941 1.27942 h -3.62502 -3.62502 z m 12.36771,0 v -5.75739 h 3.26329 c 3.079671,0 3.325371,0.0309 4.366341,0.54967 1.19415,0.59508 1.93663,1.35607 2.66427,2.73067 0.35607,0.67265 0.4658,1.2515 0.46958,2.47705 0.004,1.39611 -0.0786,1.74824 -0.6527,2.77206 -0.71468,1.27452 -2.11133,2.38982 -3.46265,2.76514 -0.43127,0.11979 -2.10354,0.21834 -3.716141,0.21898 l -2.93199,8e-4 z m 6.496461,2.60129 c 0.91815,-0.52434 1.67608,-2.12027 1.4866,-3.13027 -0.18115,-0.96563 -1.0205,-1.99355 -1.94233,-2.37871 -0.38287,-0.15998 -1.27495,-0.29085 -1.9824,-0.29085 h -1.286261 v 3.07629 c 0,2.74611 0.0401,3.08798 0.37316,3.18531 0.668001,0.19517 2.688391,-0.0832 3.351231,-0.46177 z m 16.95953,-2.70791 v -5.86401 h 1.37641 1.37641 l 1.44898,2.4466 c 0.79693,1.34561 1.51533,2.44911 1.59645,2.45221 0.0811,0.003 0.7991,-1.10174 1.59551,-2.4552 l 1.44802,-2.46083 1.3898,0.0619 1.3898,0.0619 v 5.75739 5.75737 l -1.33272,0.0635 -1.33273,0.0635 -0.0189,-1.98261 c -0.0104,-1.09045 -0.003,-2.43842 0.0158,-2.9955 0.0194,-0.56639 -0.0607,-1.01287 -0.18185,-1.01287 -0.11913,0 -0.75309,0.91159 -1.40882,2.02574 -0.78011,1.32556 -1.32042,2.02576 -1.56313,2.02576 -0.24538,0 -0.80236,-0.73979 -1.6456,-2.18567 l -1.27467,-2.18567 -0.059,3.14523 -0.059,3.14524 h -1.38033 -1.38034 z m 17.26092,4.0515 c -0.006,-0.99689 -0.0112,-3.39579 -0.0112,-5.33091 0,-1.93514 0.005,-3.71031 0.0112,-3.94489 0.0107,-0.40866 0.15712,-0.42647 3.50542,-0.42647 h 3.4942 l 0.0939,0.63971 c 0.0517,0.35184 0.0517,0.92758 0,1.27942 l -0.0939,0.63972 h -2.10816 -2.10817 v 0.84493 0.84495 l 1.97244,0.0613 1.97244,0.0613 v 1.27942 1.27941 l -1.9843,0.0615 -1.98429,0.0615 0.0652,0.89811 0.0652,0.89808 2.13236,0.0171 2.13237,0.0171 0.0635,1.31563 0.0635,1.31563 h -3.63519 -3.63519 l -0.0112,-1.81249 z m 12.1657,-3.93471 v -5.76756 h 2.99589 c 3.18021,0 3.70503,0.12529 4.61712,1.10215 0.61035,0.65369 1.12968,1.9115 1.12968,2.73611 0,0.86325 -0.53217,2.1031 -1.20357,2.80405 l -0.54124,0.56506 1.08564,1.9679 c 0.59711,1.08232 1.08564,2.05569 1.08564,2.16302 0,0.10734 -0.68942,0.16698 -1.53204,0.13251 l -1.53205,-0.0626 -0.97386,-1.70588 c -0.86765,-1.51982 -1.04845,-1.71312 -1.65768,-1.77205 l -0.6838,-0.0662 -0.0621,1.77204 -0.0621,1.77205 -1.33273,0.0635 -1.33273,0.0635 z m 5.58066,-1.00279 c 0.54468,-0.49292 0.50116,-1.46414 -0.084,-1.87399 -0.28359,-0.19863 -0.92585,-0.33193 -1.59927,-0.33193 h -1.12535 v 1.27941 1.27942 h 1.20932 c 0.82604,0 1.3329,-0.11185 1.59927,-0.35291 z m 23.63271,0.87582 v -5.87418 l 1.33273,0.0635 1.33274,0.0635 0.0608,2.18566 0.0608,2.18567 h 2.33814 2.33814 v -2.23897 -2.23898 h 1.38603 1.38604 v 5.86401 5.864 h -1.38604 -1.38603 v -2.239 -2.23898 h -2.3456 -2.3456 v 2.23898 2.239 h -1.38603 -1.38605 z m -73.67315,-13.97758 c -4.59078,-0.47711 -9.377901,-2.42109 -13.220651,-5.368681 -1.62615,-1.24733 -2.01441,-2.04988 -1.20204,-2.48464 0.35656,-0.19083 0.66645,-0.0417 1.97814,0.95206 2.30171,1.743771 4.60799,3.026861 6.93678,3.859181 3.275731,1.1708 4.695611,1.41281 8.386471,1.42946 3.69101,0.0166 5.72769,-0.35632 9.03047,-1.65359 6.87275,-2.699471 12.25037,-8.510791 14.81604,-16.010911 1.23638,-3.61424 1.40012,-5.33442 1.23571,-12.98261 -0.021,-0.97714 0.0546,-1.30646 0.3422,-1.48904 1.06004,-0.67315 1.54952,1.77507 1.37989,6.90176 -0.0917,2.77072 -0.23128,3.97767 -0.65696,5.67954 -2.83459,11.33295 -11.49823,19.423971 -22.55684,21.066021 -2.42372,0.3599 -3.77811,0.38113 -6.46921,0.10145 z m -4.15811,-7.456571 c -6.978161,-1.15248 -12.711551,-2.10056 -12.740871,-2.10684 -0.1596,-0.0343 -0.0126,-1.65456 0.25609,-2.8236 0.9358,-4.0709 1.97773,-11.97801 2.08437,-15.81812 0.0757,-2.72635 -0.13493,-2.92713 -1.73996,-1.65844 -0.61522,0.48631 -1.2521,0.88419 -1.41529,0.88419 -0.16319,0 -0.94621,-0.60332 -1.74005,-1.34072 -0.79384,-0.73741 -2.11504,-1.91288 -2.936,-2.61215 -1.6227,-1.38218 -1.80432,-1.57673 -1.80924,-1.93789 -0.002,-0.13201 0.63244,-0.94763 1.40942,-1.81251 0.77697,-0.86488 2.40987,-2.83187 3.62865,-4.37109 l 2.21597,-2.79859 4.45101,-1.51945 c 2.44805,-0.8357 4.58707,-1.51944 4.75337,-1.51944 0.1663,0 1.06439,-0.27497 1.99576,-0.61103 0.931361,-0.33607 1.820291,-0.56564 1.975401,-0.51017 0.1551,0.0555 0.99923,-0.16073 1.87583,-0.48044 l 1.59383,-0.58131 1.32271,0.37451 c 3.20918,0.90864 6.60534,0.59963 9.2229,-0.83917 l 1.2932,-0.71083 3.07982,0.50966 c 4.30483,0.71238 6.36995,1.11329 6.70735,1.30211 0.57733,0.32308 7.22718,8.28135 8.34374,9.98543 0.31214,0.47639 0.30909,0.56338 -0.0388,1.10356 -0.45382,0.70479 -1.97129,2.51643 -4.10805,4.90444 -1.70278,1.90299 -2.12127,2.08315 -2.97528,1.28084 l -0.50918,-0.47834 -0.9091,0.96219 -0.9091,0.96218 -0.14601,3.40773 c -0.29203,6.81574 -1.75875,18.1132 -2.44003,18.79448 -0.21932,0.21933 -0.5477,0.28187 -1.03478,0.19707 -0.39245,-0.0683 -1.03707,-0.18054 -1.43251,-0.24941 -0.66221,-0.11534 -0.73791,-0.0709 -0.95876,0.56261 l -0.23978,0.68786 -1.41256,-0.14473 c -0.77691,-0.0796 -1.51523,-0.16485 -1.64072,-0.18946 -0.12549,-0.0246 -0.26817,0.14719 -0.31708,0.38174 -0.14951,0.71711 -0.4873,0.9607 -1.29524,0.93404 -0.42544,-0.014 -6.48293,-0.96844 -13.46109,-2.12091 z m 20.68765,-1.85175 c 0.002,-0.088 0.1456,-1.02353 0.31899,-2.07904 1.05048,-6.39448 1.58978,-12.95582 1.59355,-19.38773 0.002,-4.24615 0.0492,-4.93883 0.35577,-5.2776 0.19409,-0.21448 0.44634,-0.38995 0.56054,-0.38995 0.11421,0 1.05176,0.826 2.08345,1.83556 1.03169,1.00956 1.96748,1.80121 2.07954,1.7592 0.32794,-0.12292 4.30596,-4.82215 4.30596,-5.08663 0,-0.26819 -4.42493,-5.78767 -6.24628,-7.79135 l -1.16975,-1.28686 -1.88944,-0.35417 c -1.80433,-0.33822 -5.30844,-0.89484 -5.69975,-0.90538 -0.10191,-0.002 -0.34329,0.61872 -0.53641,1.38105 -0.43553,1.71924 -1.40823,3.15811 -2.72418,4.02976 -1.32532,0.87787 -2.43566,1.15694 -4.124,1.03657 -2.50962,-0.17893 -4.54165,-1.59181 -5.75968,-4.0047 l -0.63991,-1.26766 -1.01162,0.39298 c -0.5564,0.21614 -2.24353,0.80102 -3.749201,1.29974 l -2.73756,0.90676 -0.99407,1.30041 c -0.54674,0.71522 -1.86127,2.31173 -2.92117,3.54778 -1.0599,1.23605 -1.9922,2.35286 -2.07178,2.48178 -0.0837,0.13568 0.79205,1.05699 2.07938,2.18745 l 2.22406,1.95304 1.70213,-1.37421 c 2.10597,-1.70025 2.37662,-1.85086 2.84994,-1.58597 0.30922,0.17304 0.36689,0.53455 0.36282,2.2742 -0.0102,4.367 -0.8455,12.03716 -1.90829,17.5232 -0.32997,1.70325 -0.57837,3.1207 -0.552,3.14988 0.0264,0.0292 3.926291,0.67826 8.666501,1.44242 4.74021,0.76415 9.96194,1.6185 11.60386,1.89853 3.30455,0.56361 3.94311,0.62682 3.9486,0.39094 z m -29.787781,-1.73147 c -0.0573,-0.21933 0.0972,-1.3285 0.34336,-2.46484 1.03824,-4.79205 2.14645,-13.27902 2.14645,-16.43807 0,-1.67707 -0.36092,-2.09978 -1.23596,-1.44762 -0.51949,0.38717 -0.59125,0.6069 -0.725,2.21996 -0.0816,0.98464 -0.25299,3.03769 -0.38077,4.56234 -0.24797,2.95875 -1.06931,8.59945 -1.70229,11.6907 -0.40687,1.98702 -0.41575,1.95709 0.63223,2.13017 0.98444,0.16256 1.02748,0.15077 0.92198,-0.25264 z m 3.72001,-1.14722 c 0.002,-0.26388 0.29761,-1.96711 0.65634,-3.78494 0.35873,-1.81784 0.84344,-4.74451 1.07714,-6.50371 0.49617,-3.73496 1.01396,-10.48689 0.81914,-10.68171 -0.0739,-0.0739 -0.5715,0.22371 -1.10568,0.66143 -0.96341,0.78944 -0.97125,0.80657 -0.97125,2.12197 0,3.1082 -0.97063,11.05492 -1.93787,15.8657 -0.24439,1.21552 -0.36413,2.28765 -0.26611,2.38251 0.098,0.0949 0.4661,0.21348 0.81794,0.26356 0.35184,0.0501 0.69968,0.10545 0.77298,0.12302 0.0733,0.0176 0.13512,-0.18394 0.13737,-0.44783 z m -7.46151,-19.25668 c 0.26066,-0.18256 0.47392,-0.42027 0.47392,-0.52821 0,-0.10795 -0.8636,-0.93077 -1.91912,-1.8285 -1.3166,-1.11978 -1.91705,-1.77405 -1.9125,-2.08394 0.004,-0.25672 0.74459,-1.28003 1.71635,-2.37082 2.09463,-2.35117 3.49056,-4.13331 3.34871,-4.27516 -0.24042,-0.24043 -0.75759,0.21837 -1.76653,1.56711 -0.5864,0.78391 -1.9666,2.47188 -3.06712,3.75108 l -2.00094,2.32581 0.9333,0.7678 c 0.51331,0.42229 1.48487,1.27157 2.15901,1.88729 0.67415,0.61572 1.30116,1.11949 1.39336,1.11949 0.0922,0 0.38091,-0.14937 0.64156,-0.33195 z m 3.77547,-1.1567 c 0.47216,-0.52173 0.42795,-0.58169 -1.84004,-2.49561 -0.92111,-0.77731 -1.67341,-1.56622 -1.67178,-1.75313 0.002,-0.18692 0.68186,-1.10749 1.51164,-2.04573 1.93002,-2.18232 3.81631,-4.48641 3.81631,-4.66163 0,-0.0749 -0.13969,-0.13619 -0.3104,-0.13619 -0.17072,0 -1.05273,0.93557 -1.96001,2.07905 -0.90729,1.14348 -2.30527,2.83964 -3.10662,3.76923 -0.80136,0.9296 -1.42636,1.78215 -1.38889,1.89454 0.1043,0.31292 4.06839,3.75621 4.33396,3.76458 0.12842,0.004 0.40554,-0.18275 0.61583,-0.41511 z m 33.796251,-0.52109 c -0.28681,-0.28682 -0.50013,0.004 -0.3294,0.44861 0.1225,0.31924 0.17372,0.329 0.33731,0.0643 0.11636,-0.18825 0.11321,-0.39178 -0.008,-0.51289 z m -11.91627,-11.12904 c 0.94538,-0.63493 2.30434,-2.79787 2.03336,-3.23632 -0.0762,-0.12322 -0.71004,0.0106 -1.57013,0.33154 -1.19782,0.44692 -1.84018,0.54206 -3.78802,0.56105 -1.29009,0.0126 -2.75343,-0.0502 -3.25186,-0.13957 -0.74297,-0.13318 -0.90626,-0.1035 -0.90626,0.16469 0,0.51187 1.7211,2.25792 2.66546,2.70411 1.31836,0.6229 3.58619,0.44142 4.81745,-0.3855 z m -28.640221,31.21846 c -1.46894,-2.2419 -3.13001,-6.73058 -3.68449,-9.95656 -0.35692,-2.07659 -0.50588,-7.22758 -0.23336,-8.06981 0.17198,-0.53152 1.0468,-0.67118 1.33564,-0.21324 0.0925,0.1466 0.18351,1.65792 0.20233,3.35848 0.0522,4.71496 0.88727,8.27554 2.88335,12.29349 0.59148,1.19061 1.04177,2.34208 1.00063,2.55884 -0.11621,0.61224 -1.10935,0.63125 -1.5041,0.0288 z m 3.58054,-33.34131 c -0.50537,-0.50537 -0.41859,-0.78089 0.57117,-1.81365 4.656,-4.8582 11.755071,-7.84236 18.711501,-7.86553 3.30246,-0.011 7.76807,0.97198 10.89027,2.39719 1.76433,0.80537 2.21545,1.21401 2.02002,1.82976 -0.22046,0.69463 -0.61041,0.6654 -2.49798,-0.18724 -6.74443,-3.04654 -14.09285,-3.08055 -20.592041,-0.0953 -2.21786,1.01873 -4.81475,2.77332 -6.71715,4.53845 -0.90776,0.84227 -1.74053,1.53139 -1.85059,1.53139 -0.11006,0 -0.3509,-0.15079 -0.5352,-0.33509 z"
             style="fill:#000000;fill-opacity:1;stroke-width:0.74153233" />
          <g
             style="fill:#000000;fill-opacity:1;stroke-width:1.28930056"
             inkscape:label="Ebene 1"
             id="layer1-1-0"
             transform="matrix(0.77561431,0,0,0.77561431,86.937287,-134.45076)">
            <g
               transform="matrix(0.64931984,0,0,-0.64931984,-26.172329,360.25576)"
               inkscape:label="rootd._logo_final_6,22cm x 1,98cm"
               id="g5936-2-8-4-0"
               clip-path="url(#clipPath2567-8-3)"
               style="fill:#000000;fill-opacity:1;stroke-width:1.61724198">
              <g
                 transform="translate(112.1835,129.8968)"
                 id="g5938-7-8-7-6"
                 style="fill:#000000;fill-opacity:1;stroke-width:1.61724198">
                <path
                   inkscape:connector-curvature="0"
                   id="path5940-7-42-4-7"
                   style="fill:#000000;fill-opacity:1;fill-rule:nonzero;stroke:none;stroke-width:1.61724198"
                   d="M 0,0 H 5.279 V -1.583 H 1.937 V -4.51 H 4.594 V -6.093 H 1.937 v -3.402 h 3.342 v -1.583 H 0 Z" />
              </g>
              <g
                 id="g5942-9-55-1-6"
                 style="fill:#000000;fill-opacity:1;stroke-width:1.61724198">
                <g
                   clip-path="url(#clipPath5948-6-3-9-3-7)"
                   id="g5944-1-5-6-8"
                   style="fill:#000000;fill-opacity:1;stroke-width:1.61724198">
                  <g
                     transform="translate(122.3202,121.4459)"
                     id="g5950-2-2-3-7"
                     style="fill:#000000;fill-opacity:1;stroke-width:1.61724198">
                    <path
                       inkscape:connector-curvature="0"
                       id="path5952-6-2-4-2"
                       style="fill:#000000;fill-opacity:1;fill-rule:nonzero;stroke:none;stroke-width:1.61724198"
                       d="m 0,0 v 0.633 h 1.83 v -0.759 c 0,-0.792 0.388,-1.077 1.003,-1.077 0.616,0 1.003,0.285 1.003,1.108 0,0.918 -0.387,1.503 -1.653,2.501 -1.62,1.282 -2.148,2.183 -2.148,3.449 0,1.741 1.003,2.754 2.886,2.754 1.883,0 2.816,-1.013 2.816,-2.785 V 5.365 H 3.906 v 0.57 C 3.906,6.726 3.555,7.027 2.938,7.027 2.323,7.027 1.971,6.726 1.971,5.966 1.971,5.159 2.376,4.574 3.643,3.577 5.262,2.295 5.772,1.408 5.772,0.032 5.772,-1.772 4.751,-2.785 2.851,-2.785 0.95,-2.785 0,-1.772 0,0" />
                  </g>
                  <g
                     transform="translate(134.7616,128.3143)"
                     id="g5954-7-4-0-6"
                     style="fill:#000000;fill-opacity:1;stroke-width:1.61724198">
                    <path
                       inkscape:connector-curvature="0"
                       id="path5956-2-1-1-0"
                       style="fill:#000000;fill-opacity:1;fill-rule:nonzero;stroke:none;stroke-width:1.61724198"
                       d="M 0,0 H -2.023 V 1.583 H 3.96 V 0 H 1.936 V -9.495 H 0 Z" />
                  </g>
                  <g
                     transform="translate(150.5292,120.0216)"
                     id="g5958-7-8-3-9"
                     style="fill:#000000;fill-opacity:1;stroke-width:1.61724198">
                    <path
                       inkscape:connector-curvature="0"
                       id="path5960-0-9-6-7"
                       style="fill:#000000;fill-opacity:1;fill-rule:nonzero;stroke:none;stroke-width:1.61724198"
                       d="m 0,0 c 0,1.583 0.493,2.548 1.937,3.909 1.477,1.408 1.9,2.247 1.9,3.276 0,0.997 -0.388,1.266 -1.003,1.266 C 2.218,8.451 1.831,8.15 1.831,7.359 V 6.172 H 0 v 1.076 c 0,1.773 0.986,2.785 2.887,2.785 1.9,0 2.885,-1.012 2.885,-2.785 C 5.772,5.935 5.174,4.764 3.379,3.054 2.218,1.947 1.919,1.393 1.919,0.617 V 0.38 H 5.597 V -1.203 H 0 Z" />
                  </g>
                  <g
                     transform="translate(165.452,121.3351)"
                     id="g5962-5-2-4-4"
                     style="fill:#000000;fill-opacity:1;stroke-width:1.61724198">
                    <path
                       inkscape:connector-curvature="0"
                       id="path5964-8-4-0-4"
                       style="fill:#000000;fill-opacity:1;fill-rule:nonzero;stroke:none;stroke-width:1.61724198"
                       d="m 0,0 v 6.045 c 0,0.792 -0.387,1.092 -1.003,1.092 -0.615,0 -1.003,-0.3 -1.003,-1.092 V 0 c 0,-0.791 0.388,-1.092 1.003,-1.092 C -0.387,-1.092 0,-0.791 0,0 m -3.941,0.111 v 5.824 c 0,1.772 1.038,2.785 2.938,2.785 1.9,0 2.94,-1.013 2.94,-2.785 V 0.111 c 0,-1.773 -1.04,-2.785 -2.94,-2.785 -1.9,0 -2.938,1.012 -2.938,2.785" />
                  </g>
                  <g
                     transform="translate(172.703,120.0216)"
                     id="g5966-5-82-7-7"
                     style="fill:#000000;fill-opacity:1;stroke-width:1.61724198">
                    <path
                       inkscape:connector-curvature="0"
                       id="path5968-9-9-2-5"
                       style="fill:#000000;fill-opacity:1;fill-rule:nonzero;stroke:none;stroke-width:1.61724198"
                       d="m 0,0 c 0,1.583 0.493,2.548 1.936,3.909 1.478,1.408 1.9,2.247 1.9,3.276 0,0.997 -0.387,1.266 -1.003,1.266 C 2.218,8.451 1.83,8.15 1.83,7.359 V 6.172 H 0 v 1.076 c 0,1.773 0.985,2.785 2.886,2.785 1.9,0 2.886,-1.012 2.886,-2.785 C 5.772,5.935 5.174,4.764 3.379,3.054 2.218,1.947 1.918,1.393 1.918,0.617 V 0.38 H 5.596 V -1.203 H 0 Z" />
                  </g>
                  <g
                     transform="translate(186.535,127.2699)"
                     id="g5970-6-95-8-2"
                     style="fill:#000000;fill-opacity:1;stroke-width:1.61724198">
                    <path
                       inkscape:connector-curvature="0"
                       id="path5972-5-5-5-8"
                       style="fill:#000000;fill-opacity:1;fill-rule:nonzero;stroke:none;stroke-width:1.61724198"
                       d="m 0,0 h -2.023 v 1.234 c 1.635,0 2.216,0.317 2.657,1.393 H 1.936 V -8.451 H 0 Z" />
                  </g>
                  <g
                     transform="translate(115.329,141.7215)"
                     id="g5974-5-5-0-7"
                     style="fill:#000000;fill-opacity:1;stroke-width:1.61724198">
                    <path
                       inkscape:connector-curvature="0"
                       id="path5976-0-8-7-9"
                       style="fill:#000000;fill-opacity:1;fill-rule:nonzero;stroke:none;stroke-width:1.61724198"
                       d="m 0,0 v 0 c -4.341,0 -7.529,3.16 -7.529,7.502 0,4.343 3.188,7.502 7.529,7.502 4.341,0 7.482,-3.136 7.482,-7.502 C 7.482,3.136 4.341,0 0,0 m 0,22.157 c -9.167,0 -15.709,-6.128 -15.709,-14.654 0,-8.526 6.542,-14.654 15.709,-14.654 v 0 c 9.144,0 15.662,6.105 15.662,14.654 0,8.549 -6.518,14.654 -15.662,14.654" />
                  </g>
                  <g
                     transform="translate(149.2225,141.7215)"
                     id="g5978-4-2-7-1"
                     style="fill:#000000;fill-opacity:1;stroke-width:1.61724198">
                    <path
                       inkscape:connector-curvature="0"
                       id="path5980-4-77-4-9"
                       style="fill:#000000;fill-opacity:1;fill-rule:nonzero;stroke:none;stroke-width:1.61724198"
                       d="m 0,0 v 0 c -4.341,0 -7.529,3.16 -7.529,7.502 0,4.343 3.188,7.502 7.529,7.502 4.341,0 7.482,-3.136 7.482,-7.502 C 7.482,3.136 4.341,0 0,0 m 0,22.157 c -9.167,0 -15.709,-6.128 -15.709,-14.654 0,-8.526 6.542,-14.654 15.709,-14.654 v 0 c 9.144,0 15.662,6.105 15.662,14.654 0,8.549 -6.518,14.654 -15.662,14.654" />
                  </g>
                  <g
                     transform="translate(166.1669,156.2533)"
                     id="g5982-5-96-3-1"
                     style="fill:#000000;fill-opacity:1;stroke-width:1.61724198">
                    <path
                       inkscape:connector-curvature="0"
                       id="path5984-9-6-6-6"
                       style="fill:#000000;fill-opacity:1;fill-rule:nonzero;stroke:none;stroke-width:1.61724198"
                       d="m 0,0 h 7.746 v -20.977 h 7.891 V 0 h 7.747 V 6.92 H 0 Z" />
                  </g>
                  <g
                     transform="translate(204.2274,142.3143)"
                     id="g5986-4-0-7-0"
                     style="fill:#000000;fill-opacity:1;stroke-width:1.61724198">
                    <path
                       inkscape:connector-curvature="0"
                       id="path5988-9-01-5-8"
                       style="fill:#000000;fill-opacity:1;fill-rule:nonzero;stroke:none;stroke-width:1.61724198"
                       d="M 0,0 H -3.28 V 13.821 H 0 c 4.223,0 7.037,-2.749 7.037,-6.888 C 7.037,2.818 4.223,0 0,0 M 0.37,20.859 H -11.172 V -7.038 H 0.37 c 8.61,0 14.721,5.83 14.721,13.971 0,8.152 -6.087,13.926 -14.721,13.926" />
                  </g>
                  <g
                     transform="translate(79.2704,111.2884)"
                     id="g5990-6-25-6-8"
                     style="fill:#000000;fill-opacity:1;stroke-width:1.61724198">
                    <path
                       inkscape:connector-curvature="0"
                       id="path5992-3-7-1-7"
                       style="fill:#000000;fill-opacity:1;fill-rule:nonzero;stroke:none;stroke-width:1.61724198"
                       d="M 0,0 C -0.009,0 -0.005,-0.001 0,0" />
                  </g>
                  <g
                     transform="translate(81.6727,156.3439)"
                     id="g5994-7-1-7-2"
                     style="fill:#000000;fill-opacity:1;stroke-width:1.61724198">
                    <path
                       inkscape:connector-curvature="0"
                       id="path5996-1-5-1-2"
                       style="fill:#000000;fill-opacity:1;fill-rule:nonzero;stroke:none;stroke-width:1.61724198"
                       d="M 0,0 H 3.589 C 5.785,0 7.05,-1.277 7.05,-3.02 7.05,-4.764 5.785,-6.058 3.589,-6.058 H 0 Z m 0,-12.532 h 2.849 l 4.627,-8.536 h 8.768 l -5.662,10.146 c 2.816,1.65 4.526,4.455 4.526,7.879 0,5.832 -4.457,9.873 -10.604,9.873 H -7.855 c 0,0 0.054,-30.314 0.062,-31.522 0.002,-0.411 -0.175,-0.708 -0.514,-0.933 -0.12,-0.081 -0.251,-0.147 -0.377,-0.22 -0.713,-0.415 -1.437,-0.815 -2.137,-1.249 -0.367,-0.228 -0.75,-0.383 -1.176,-0.465 -1.955,-0.376 -3.945,-0.446 -5.921,-0.639 -1.65,-0.162 -3.289,-0.393 -4.87,-0.894 -0.514,-0.163 -1.009,-0.381 -1.513,-0.574 0.008,-0.02 0.015,-0.041 0.023,-0.061 2.146,0.893 4.426,1.029 6.782,1.129 -0.213,-0.159 -0.37,-0.27 -0.519,-0.391 -0.155,-0.126 -0.306,-0.257 -0.45,-0.395 -0.132,-0.127 -0.251,-0.266 -0.376,-0.4 1.048,0.9 2.27,1.288 3.658,1.282 0.639,-0.003 1.277,0.054 1.915,0.09 0.294,0.016 0.588,0.046 0.857,0.067 -0.63,-0.822 -1.26,-1.635 -1.88,-2.455 -0.889,-1.174 -2.069,-1.971 -3.511,-2.377 -1.012,-0.287 -2.058,-0.469 -3.09,-0.699 -0.949,-0.211 -1.906,-0.394 -2.842,-0.646 -0.433,-0.117 -0.825,-0.37 -1.236,-0.561 0.011,-0.02 0.022,-0.04 0.033,-0.06 0.233,0.1 0.457,0.24 0.702,0.292 0.73,0.155 1.464,0.315 2.207,0.4 1.031,0.118 2.071,0.158 3.105,0.254 0.49,0.046 0.976,0.144 1.463,0.218 -0.679,-0.52 -1.378,-1.013 -2.105,-1.464 -0.887,-0.55 -1.854,-0.899 -2.909,-1.059 -1.601,-0.244 -3.012,-0.892 -4.162,-2.004 -0.309,-0.3 -0.577,-0.641 -0.863,-0.963 0.016,-0.013 0.032,-0.026 0.049,-0.039 0.014,0.012 0.032,0.022 0.045,0.037 1.253,1.478 2.901,2.254 4.855,2.452 0.822,0.083 1.632,0.186 2.4,0.488 0.354,0.139 0.702,0.292 1.086,0.452 -0.681,-1.514 -0.841,-3.071 -0.72,-4.668 0.013,0.071 0.025,0.142 0.039,0.213 0.116,0.647 0.199,1.301 0.355,1.939 0.417,1.701 1.258,3.146 2.891,4.055 1.373,0.764 2.458,1.813 3.42,3.002 0.987,1.221 2.054,2.369 3.502,3.121 0.429,0.222 0.868,0.424 1.355,0.66 -0.053,-0.11 -0.077,-0.163 -0.104,-0.215 -0.492,-0.953 -0.913,-1.936 -1.161,-2.972 -0.317,-1.323 -1.012,-2.412 -2.041,-3.332 -0.677,-0.605 -1.348,-1.218 -1.983,-1.863 -0.921,-0.937 -1.567,-2.024 -1.782,-3.314 -0.081,-0.484 -0.09,-0.968 0.043,-1.489 0.031,0.303 0.04,0.565 0.088,0.821 0.237,1.26 0.934,2.278 1.954,3.063 1.104,0.849 2.276,1.615 3.42,2.416 0.012,0.009 0.038,0 0.065,-0.002 0.139,-0.895 0.478,-1.722 0.908,-2.52 0.127,-0.236 0.242,-0.482 0.336,-0.733 0.491,-1.319 0.324,-2.573 -0.436,-3.761 -0.127,-0.199 -0.28,-0.385 -0.441,-0.604 0.83,0.501 1.263,1.107 1.877,2.613 0.021,-0.025 0.042,-0.041 0.052,-0.062 0.478,-0.974 0.912,-1.965 1.082,-3.037 0.15,-0.943 0.116,-1.879 -0.496,-2.684 -0.373,-0.491 -0.812,-0.943 -1.266,-1.369 -0.453,-0.425 -0.96,-0.795 -1.444,-1.19 0.106,0.068 0.243,0.109 0.354,0.186 0.758,0.529 1.539,1.034 2.257,1.61 0.844,0.679 1.304,1.579 1.419,2.636 0.098,0.901 -0.03,1.78 -0.242,2.653 -0.366,1.516 -0.992,2.948 -1.576,4.393 -0.343,0.848 -0.541,1.714 -0.487,2.632 0.069,1.204 0.498,2.304 1.012,3.383 0.039,0.084 0.1,0.158 0.165,0.258 0.442,-0.599 0.843,-1.185 0.856,-1.93 0.004,-0.235 0.008,-0.47 0.007,-0.705 -0.007,-1.146 0.574,-2.004 1.453,-2.716 0.011,-0.009 0.036,-10e-4 0.069,-10e-4 -0.054,0.061 -0.099,0.112 -0.145,0.161 -0.796,0.84 -1.169,1.805 -0.941,2.942 0.13,0.646 0.027,1.252 -0.293,1.832 -0.133,0.243 -0.278,0.489 -0.355,0.75 -0.064,0.214 -0.129,0.504 -0.029,0.671 0.287,0.479 0.656,0.911 1.022,1.4 0.039,-0.118 0.059,-0.181 0.082,-0.242 0.163,-0.443 0.309,-0.892 0.495,-1.325 0.391,-0.907 1.016,-1.662 1.725,-2.362 0.586,-0.579 0.77,-1.271 0.592,-2.061 -0.163,-0.719 -0.521,-1.358 -0.872,-1.998 -0.91,-1.655 -1.169,-3.385 -0.698,-5.207 0.046,-0.175 0.099,-0.349 0.158,-0.521 0.055,-0.163 0.122,-0.321 0.184,-0.481 -0.525,1.789 -0.448,3.524 0.397,5.232 0.131,-0.395 0.233,-0.77 0.381,-1.128 0.493,-1.182 0.91,-2.383 1.094,-3.646 0.119,-0.819 0.162,-1.643 -0.209,-2.414 -0.178,-0.372 -0.45,-0.703 -0.671,-1.029 0.029,0.019 0.056,0.039 0.082,0.061 0.478,0.394 0.775,0.895 0.945,1.47 0.275,0.929 0.222,1.87 0.016,2.792 -0.247,1.106 -0.56,2.2 -0.881,3.29 -0.189,0.643 -0.179,1.255 0.101,1.865 0.064,0.141 0.137,0.28 0.191,0.425 0.205,0.54 0.409,1.081 0.599,1.625 0.047,0.133 0.045,0.281 0.073,0.472 0.176,-0.18 0.321,-0.316 0.45,-0.462 0.817,-0.917 1.097,-2.018 1.124,-3.179 0.035,-1.495 -0.005,-2.993 0.019,-4.488 0.024,-1.407 0.179,-2.799 0.665,-4.14 0.36,-0.995 0.87,-1.894 1.811,-2.503 0.256,-0.167 0.543,-0.293 0.815,-0.438 0.012,0.018 0.023,0.035 0.034,0.052 -1.081,0.479 -1.71,1.324 -2.088,2.362 -0.454,1.249 -0.472,2.554 -0.519,3.855 -0.002,0.062 0.025,0.124 0.053,0.247 0.15,-0.277 0.26,-0.507 0.395,-0.722 0.605,-0.969 1.476,-1.676 2.464,-2.268 0.978,-0.586 1.863,-1.268 2.48,-2.225 0.337,-0.523 0.565,-1.084 0.692,-1.685 -0.033,0.643 -0.241,1.234 -0.549,1.799 -0.554,1.014 -1.409,1.762 -2.349,2.437 -0.861,0.619 -1.614,1.328 -2.107,2.265 -0.637,1.21 -0.814,2.498 -0.761,3.831 0.034,0.863 0.122,1.729 0.087,2.59 -0.045,1.123 -0.369,2.188 -1.114,3.089 -0.396,0.478 -0.828,0.929 -1.259,1.379 -0.561,0.587 -1.081,1.199 -1.46,1.912 -0.417,0.785 -0.604,1.624 -0.699,2.524 0.278,-0.4 0.524,-0.775 0.793,-1.134 1.101,-1.476 2.495,-2.684 3.904,-3.879 1.25,-1.059 2.488,-2.131 3.703,-3.225 0.633,-0.57 1.142,-1.238 1.401,-2.053 0.354,-1.117 0.548,-2.261 0.59,-3.424 0.034,-0.918 -0.165,-1.788 -0.719,-2.561 -0.013,-0.017 -0.014,-0.042 -0.031,-0.104 0.06,0.06 0.092,0.087 0.117,0.118 0.061,0.082 0.123,0.163 0.178,0.249 0.63,0.965 0.729,2.032 0.612,3.125 -0.078,0.739 -0.214,1.472 -0.334,2.268 0.188,-0.379 0.362,-0.705 0.513,-1.041 0.681,-1.504 1.06,-3.073 1.108,-4.707 0.083,4.123 -1.756,7.458 -4.741,10.361 0.179,-0.017 0.291,-0.027 0.402,-0.038 1.327,-0.127 2.527,-0.554 3.463,-1.483 0.576,-0.573 1.092,-1.206 1.598,-1.839 1.157,-1.449 2.669,-2.201 4.581,-2.186 0.398,0.004 0.796,0.079 1.176,0.12 -0.479,0 -0.969,-0.019 -1.458,0.004 -1.346,0.063 -2.505,0.528 -3.369,1.544 -0.42,0.494 -0.829,1.003 -1.179,1.542 -1.035,1.591 -2.486,2.575 -4.426,2.892 -0.394,0.065 -0.786,0.146 -1.17,0.25 -0.555,0.149 -0.948,0.529 -1.341,0.907 0.072,0.004 0.132,-0.01 0.191,-0.027 1.19,-0.336 2.398,-0.578 3.642,-0.607 1.046,-0.024 2.094,0.017 3.138,-0.038 1.509,-0.079 2.924,-0.405 3.866,-1.72 -0.002,0.038 0.003,0.059 -0.005,0.074 -0.035,0.065 -0.071,0.131 -0.113,0.193 -0.476,0.71 -1.18,1.132 -1.984,1.426 -1.005,0.367 -2.058,0.474 -3.12,0.517 -1.465,0.06 -2.913,0.211 -4.311,0.657 -1.097,0.349 -2.168,0.753 -3.057,1.489 -0.906,0.75 -1.459,1.742 -2.01,2.733 -0.008,0.015 -10e-4,0.037 -10e-4,0.087 0.092,-0.074 0.166,-0.132 0.239,-0.192 0.697,-0.577 1.469,-1.032 2.345,-1.316 1.174,-0.38 2.372,-0.35 3.584,-0.225 0.689,0.071 1.391,0.127 2.078,0.079 1.372,-0.097 2.531,-0.712 3.568,-1.543 0.401,-0.321 0.772,-0.677 1.189,-1.045 -0.781,1.064 -1.698,1.939 -2.87,2.652 1.619,-0.055 3.144,-0.244 4.638,-0.629 -0.064,0.026 -0.126,0.054 -0.19,0.079 -1.824,0.711 -3.733,1.08 -5.686,1.238 -1.021,0.083 -2.048,0.088 -3.072,0.126 -0.911,0.033 -1.809,0.131 -2.652,0.49 -1.478,0.63 -1.929,1.214 -1.875,2.743 C -0.101,-22.916 0,-12.532 0,-12.532" />
                  </g>
                  <g
                     transform="translate(79.2704,111.2884)"
                     id="g5998-5-0-8-7"
                     style="fill:#000000;fill-opacity:1;stroke-width:1.61724198">
                    <path
                       inkscape:connector-curvature="0"
                       id="path6000-3-0-8-1"
                       style="fill:#000000;fill-opacity:1;fill-rule:nonzero;stroke:none;stroke-width:1.61724198"
                       d="M 0,0 C 0.005,0 0.014,0 0.029,0 0.038,0.012 0.047,0.025 0.056,0.037 0.038,0.025 0.021,0.013 0.003,0.002 0.002,0.001 0.001,0 0,0" />
                  </g>
                  <g
                     transform="translate(230.7323,139.2777)"
                     id="g6002-0-12-6-4"
                     style="fill:#000000;fill-opacity:1;stroke-width:1.61724198">
                    <path
                       inkscape:connector-curvature="0"
                       id="path6004-1-8-5-0"
                       style="fill:#000000;fill-opacity:1;fill-rule:nonzero;stroke:none;stroke-width:1.61724198"
                       d="m 0,0 c 0,-2.096 -1.737,-3.796 -3.881,-3.796 -2.142,0 -3.88,1.7 -3.88,3.796 0,2.097 1.738,3.796 3.88,3.796 C -1.737,3.796 0,2.097 0,0" />
                  </g>
                </g>
              </g>
            </g>
          </g>
        </g>
        <path
           transform="translate(10.835525,-139.94199)"
           style="fill:#000000;stroke-width:1"
           d="m 35.011589,273.3224 c -3.359817,-1.02571 -5.135899,-4.25181 -4.169991,-7.57441 0.479701,-1.65011 2.072831,-3.29266 3.726269,-3.84184 2.175044,-0.72244 4.621058,-0.1616 6.177895,1.41651 1.265048,1.28232 1.617061,2.20119 1.619922,4.22852 0.0023,1.59477 -0.06771,1.93204 -0.582337,2.80748 -1.431371,2.43491 -4.337606,3.70685 -6.771758,2.96374 z m 2.381366,-2.79228 c 0.961468,-0.26704 2.027903,-1.43636 2.213822,-2.42739 0.3869,-2.06236 -1.591727,-4.04098 -3.654083,-3.65408 -0.983791,0.18456 -2.160043,1.25191 -2.451431,2.22448 -0.546616,1.82444 0.912993,3.86751 2.896362,4.05415 0.11728,0.011 0.565179,-0.0777 0.99533,-0.19716 z m 13.333725,2.69684 c -2.908201,-1.08417 -4.587951,-3.95426 -3.992618,-6.82196 0.823516,-3.96685 5.192277,-5.99291 8.748663,-4.05729 2.013687,1.09599 2.984863,2.79959 2.984863,5.23592 0,2.40154 -1.123331,4.23919 -3.257518,5.32897 -1.138308,0.58125 -3.351248,0.73641 -4.48339,0.31436 z m 3.558682,-3.08477 c 1.359161,-0.77725 1.834467,-2.9725 0.930372,-4.297 -1.02607,-1.50321 -2.991333,-1.87346 -4.446029,-0.83763 -1.352584,0.96313 -1.674761,2.89755 -0.717266,4.30663 0.297429,0.43771 0.561309,0.79727 0.586401,0.79904 0.02509,0.002 0.429447,0.1426 0.898566,0.31296 0.941064,0.34175 1.810932,0.25186 2.747956,-0.284 z m 103.485968,3.07171 c -2.88145,-1.02779 -4.58845,-3.93885 -3.99263,-6.8089 0.82434,-3.9708 5.19214,-5.99299 8.75549,-4.05357 0.96598,0.52575 2.33833,1.83856 2.33833,2.23689 0,0.0762 -0.51258,0.40688 -1.13907,0.73489 l -1.13908,0.59638 -0.86367,-0.69406 c -1.14689,-0.92167 -2.24778,-1.06918 -3.44001,-0.46095 -3.34955,1.70881 -1.44372,6.72718 2.18382,5.75038 0.4674,-0.12585 1.11498,-0.5127 1.43909,-0.85965 l 0.58928,-0.63084 1.06312,0.53872 c 0.5847,0.2963 1.11469,0.62218 1.17773,0.72418 0.18291,0.29595 -0.86987,1.57382 -1.82516,2.2154 -1.53099,1.02823 -3.49683,1.29982 -5.14724,0.71113 z M 17.526207,267.55118 v -5.75738 l 3.038619,0.003 c 2.755896,0.003 3.117574,0.0482 3.887217,0.48413 1.298933,0.73567 1.848948,1.85791 1.765807,3.6029 -0.05872,1.23248 -0.160733,1.54061 -0.754753,2.27979 -0.377769,0.47007 -0.686853,0.90996 -0.686853,0.97751 0,0.0675 0.479782,0.97392 1.066182,2.01416 0.586399,1.04023 1.066181,1.95014 1.066181,2.02204 0,0.0719 -0.695684,0.13008 -1.545964,0.12931 l -1.545963,-0.002 -1.026891,-1.8111 c -0.976216,-1.72123 -1.06303,-1.8106 -1.7592,-1.8106 H 20.29828 v 1.81251 1.81251 h -1.386036 -1.386037 z m 5.757382,-1.06618 c 0.546078,-0.54608 0.542361,-1.16353 -0.01033,-1.71623 -0.357325,-0.35732 -0.658027,-0.42522 -1.652582,-0.37316 l -1.215775,0.0637 -0.06395,1.22611 -0.06395,1.22611 h 1.290059 c 1.005745,0 1.38405,-0.094 1.716533,-0.42648 z m 41.745374,2.40897 -0.05767,-4.43471 -1.439345,-0.063 -1.439346,-0.063 v -1.27409 -1.27409 l 4.318036,0.0577 4.318037,0.0577 v 1.1728 1.1728 l -1.435048,0.0629 -1.435049,0.0629 -0.05761,4.41502 -0.05761,4.415 -1.328371,0.0633 -1.328371,0.0633 z m 9.857826,-1.34279 v -5.75738 h 3.625017 3.625019 v 1.27942 1.27942 h -2.238982 -2.238982 v 0.85294 0.85294 h 2.035921 2.035919 l -0.06348,1.33273 -0.06348,1.33273 -1.972435,0.0613 -1.972437,0.0613 v 0.82213 c 0,1.02225 0.140009,1.081 2.576277,1.081 h 1.901687 v 1.27942 1.27942 h -3.625019 -3.625017 z m 12.367708,0 v -5.75738 h 3.263297 c 3.079666,0 3.325366,0.0309 4.366339,0.54967 1.19415,0.59507 1.93663,1.35606 2.66427,2.73066 0.35607,0.67266 0.4658,1.2515 0.46958,2.47705 0.004,1.39612 -0.0786,1.74825 -0.6527,2.77207 -0.71468,1.27451 -2.11133,2.38982 -3.462649,2.76514 -0.431275,0.11979 -2.103536,0.21833 -3.716137,0.21898 l -2.932,8.1e-4 z m 6.49647,2.6013 c 0.918151,-0.52435 1.676076,-2.12027 1.486596,-3.13027 -0.18115,-0.96563 -1.020498,-1.99355 -1.942333,-2.37871 -0.382868,-0.15998 -1.274947,-0.29086 -1.982393,-0.29086 H 90.02657 v 3.07629 c 0,2.74611 0.04006,3.08799 0.373163,3.18531 0.668004,0.19517 2.688389,-0.0832 3.351234,-0.46176 z m 16.959523,-2.70791 v -5.86401 h 1.37641 1.37641 l 1.44898,2.44659 c 0.79693,1.34562 1.51533,2.44912 1.59645,2.45222 0.0811,0.003 0.7991,-1.10175 1.59551,-2.4552 l 1.44802,-2.46083 1.3898,0.0619 1.3898,0.0619 v 5.75738 5.75737 l -1.33272,0.0635 -1.33273,0.0635 -0.0189,-1.98261 c -0.0104,-1.09044 -0.003,-2.43841 0.0158,-2.99549 0.0194,-0.5664 -0.0607,-1.01287 -0.18185,-1.01287 -0.11913,0 -0.75309,0.91159 -1.40882,2.02574 -0.78012,1.32556 -1.32042,2.02575 -1.56314,2.02575 -0.24538,0 -0.80236,-0.73978 -1.6456,-2.18567 l -1.27466,-2.18567 -0.059,3.14523 -0.059,3.14524 h -1.38034 -1.38033 z m 17.26092,4.05149 c -0.006,-0.99689 -0.0112,-3.39579 -0.0112,-5.33091 0,-1.93513 0.005,-3.71031 0.0112,-3.94488 0.0107,-0.40866 0.15712,-0.42647 3.50542,-0.42647 h 3.4942 l 0.0939,0.63971 c 0.0517,0.35184 0.0517,0.92757 0,1.27942 l -0.0939,0.63971 h -2.10816 -2.10817 v 0.84494 0.84495 l 1.97244,0.0613 1.97244,0.0613 v 1.27942 1.27941 l -1.9843,0.0615 -1.98429,0.0615 0.0652,0.8981 0.0652,0.89809 2.13236,0.0171 2.13237,0.0171 0.0635,1.31563 0.0635,1.31563 h -3.63519 -3.63519 l -0.0112,-1.8125 z m 12.1657,-3.9347 v -5.76756 h 2.99589 c 3.18021,0 3.70503,0.12528 4.61712,1.10214 0.61035,0.65369 1.12968,1.91151 1.12968,2.73612 0,0.86324 -0.53217,2.10309 -1.20357,2.80405 l -0.54124,0.56506 1.08564,1.96789 c 0.59711,1.08233 1.08564,2.0557 1.08564,2.16303 0,0.10734 -0.68942,0.16697 -1.53204,0.1325 l -1.53205,-0.0626 -0.97386,-1.70588 c -0.86765,-1.51982 -1.04845,-1.71311 -1.65768,-1.77205 l -0.6838,-0.0662 -0.0621,1.77205 -0.0621,1.77205 -1.33273,0.0635 -1.33273,0.0635 z m 5.58066,-1.00279 c 0.54468,-0.49293 0.50116,-1.46414 -0.084,-1.87399 -0.28359,-0.19864 -0.92585,-0.33194 -1.59927,-0.33194 h -1.12535 v 1.27942 1.27942 h 1.20932 c 0.82604,0 1.3329,-0.11185 1.59927,-0.35291 z m 23.63271,0.87582 v -5.87418 l 1.33273,0.0635 1.33274,0.0635 0.0608,2.18566 0.0608,2.18567 h 2.33814 2.33814 v -2.23897 -2.23899 h 1.38603 1.38604 v 5.86401 5.864 h -1.38604 -1.38603 v -2.23899 -2.23898 h -2.3456 -2.3456 v 2.23898 2.23899 h -1.38603 -1.38605 z M 95.677333,253.4568 c -4.590776,-0.47711 -9.377904,-2.42108 -13.220653,-5.36867 -1.626145,-1.24734 -2.014404,-2.04988 -1.202038,-2.48465 0.356563,-0.19082 0.666445,-0.0417 1.978145,0.95207 2.301701,1.74377 4.607989,3.02685 6.936778,3.85918 3.27573,1.1708 4.695608,1.41281 8.386468,1.42945 3.691007,0.0166 5.727687,-0.35631 9.030467,-1.65358 6.87275,-2.69948 12.25037,-8.51079 14.81604,-16.01091 1.23638,-3.61424 1.40012,-5.33442 1.23571,-12.98261 -0.021,-0.97714 0.0546,-1.30646 0.3422,-1.48904 1.06004,-0.67315 1.54952,1.77507 1.37989,6.90176 -0.0917,2.77072 -0.23128,3.97766 -0.65696,5.67954 -2.83459,11.33294 -11.49823,19.42397 -22.55684,21.06602 -2.423717,0.35989 -3.778107,0.38112 -6.469207,0.10144 z m -4.158108,-7.45657 c -6.97816,-1.15247 -12.711553,-2.10055 -12.740873,-2.10684 -0.159597,-0.0343 -0.01264,-1.65455 0.256093,-2.82359 0.935796,-4.0709 1.977724,-11.97801 2.084372,-15.81812 0.07572,-2.72635 -0.13494,-2.92713 -1.739962,-1.65844 -0.615219,0.48631 -1.2521,0.88419 -1.41529,0.88419 -0.163189,0 -0.946215,-0.60332 -1.740053,-1.34072 -0.793837,-0.73741 -2.115037,-1.91288 -2.935996,-2.61215 -1.622699,-1.38218 -1.804329,-1.57673 -1.809245,-1.93789 -0.0017,-0.13201 0.632442,-0.94763 1.409418,-1.81251 0.776974,-0.86488 2.409869,-2.83187 3.628654,-4.37109 l 2.215973,-2.79859 4.451005,-1.51945 c 2.448053,-0.8357 4.587067,-1.51944 4.753367,-1.51944 0.166301,0 1.06439,-0.27497 1.99576,-0.61103 0.931367,-0.33607 1.820298,-0.56564 1.975402,-0.51017 0.155104,0.0555 0.999229,-0.16073 1.875836,-0.48044 l 1.593827,-0.58131 1.32271,0.37451 c 3.20918,0.90864 6.605337,0.59963 9.222897,-0.83917 l 1.2932,-0.71083 3.07982,0.50966 c 4.30483,0.71238 6.36995,1.11329 6.70735,1.30211 0.57733,0.32308 7.22718,8.28135 8.34374,9.98543 0.31214,0.47639 0.30909,0.56338 -0.0388,1.10356 -0.45382,0.70479 -1.97129,2.51643 -4.10805,4.90444 -1.70278,1.90299 -2.12127,2.08315 -2.97528,1.28084 l -0.50918,-0.47834 -0.9091,0.96219 -0.9091,0.96218 -0.14601,3.40773 c -0.29203,6.81574 -1.75875,18.1132 -2.44003,18.79448 -0.21932,0.21932 -0.5477,0.28186 -1.03478,0.19707 -0.39245,-0.0683 -1.03707,-0.18054 -1.43251,-0.24941 -0.66221,-0.11534 -0.73791,-0.0709 -0.95876,0.56261 l -0.23978,0.68785 -1.41256,-0.14472 c -0.77691,-0.0796 -1.51523,-0.16485 -1.64072,-0.18946 -0.12549,-0.0246 -0.26817,0.14718 -0.31708,0.38174 -0.14951,0.71711 -0.4873,0.9607 -1.29524,0.93404 -0.42544,-0.014 -6.482927,-0.96845 -13.461088,-2.12092 z m 20.687645,-1.85174 c 0.002,-0.088 0.1456,-1.02353 0.31899,-2.07905 1.05048,-6.39447 1.58978,-12.95581 1.59355,-19.38772 0.002,-4.24615 0.0492,-4.93883 0.35577,-5.2776 0.19409,-0.21448 0.44634,-0.38995 0.56054,-0.38995 0.11421,0 1.05176,0.826 2.08345,1.83556 1.03169,1.00956 1.96748,1.80121 2.07954,1.7592 0.32794,-0.12292 4.30596,-4.82215 4.30596,-5.08663 0,-0.26819 -4.42493,-5.78767 -6.24628,-7.79135 l -1.16975,-1.28686 -1.88944,-0.35417 c -1.80433,-0.33822 -5.30844,-0.89484 -5.69975,-0.90538 -0.10191,-0.002 -0.34329,0.61872 -0.53641,1.38105 -0.43553,1.71924 -1.40823,3.15811 -2.72418,4.02976 -1.32532,0.87787 -2.43566,1.15694 -4.124,1.03657 -2.509617,-0.17893 -4.541647,-1.59181 -5.759677,-4.0047 l -0.63991,-1.26766 -1.011625,0.39298 c -0.556393,0.21614 -2.243528,0.80102 -3.74919,1.29974 l -2.737567,0.90676 -0.994069,1.30041 c -0.546739,0.71522 -1.861264,2.31173 -2.921166,3.54778 -1.059902,1.23605 -1.992203,2.35286 -2.071779,2.48178 -0.08374,0.13568 0.792049,1.05699 2.079379,2.18745 l 2.22406,1.95304 1.702126,-1.37421 c 2.105976,-1.70025 2.376624,-1.85086 2.849943,-1.58597 0.309214,0.17304 0.366888,0.53455 0.36282,2.2742 -0.01021,4.367 -0.845504,12.03715 -1.908295,17.52319 -0.329967,1.70326 -0.578366,3.12071 -0.552001,3.14989 0.02637,0.0292 3.926291,0.67826 8.666504,1.44242 4.740207,0.76415 9.961937,1.61849 11.603857,1.89852 3.30455,0.56362 3.94311,0.62683 3.9486,0.39095 z m -29.787776,-1.73148 c -0.05735,-0.21932 0.09716,-1.32849 0.34336,-2.46484 1.038234,-4.79204 2.146443,-13.27901 2.146443,-16.43806 0,-1.67707 -0.360908,-2.09978 -1.235956,-1.44762 -0.519487,0.38717 -0.591247,0.6069 -0.725,2.21996 -0.08164,0.98464 -0.252991,3.03769 -0.380769,4.56233 -0.247968,2.95876 -1.069315,8.59945 -1.702289,11.69071 -0.406871,1.98702 -0.415751,1.95709 0.632233,2.13016 0.984442,0.16257 1.027475,0.15078 0.921978,-0.25264 z m 3.720013,-1.14721 c 0.0023,-0.26388 0.297604,-1.96711 0.656333,-3.78494 0.358727,-1.81784 0.843442,-4.74451 1.077145,-6.50371 0.49617,-3.73496 1.013953,-10.48689 0.819141,-10.68171 -0.07395,-0.0739 -0.5715,0.22371 -1.105687,0.66143 -0.963408,0.78944 -0.971251,0.80657 -0.971251,2.12197 0,3.1082 -0.970626,11.05492 -1.937864,15.8657 -0.244386,1.21552 -0.364135,2.28764 -0.266111,2.38251 0.09803,0.0949 0.466099,0.21347 0.817939,0.26356 0.35184,0.0501 0.699682,0.10545 0.772981,0.12302 0.0733,0.0176 0.135118,-0.18395 0.137374,-0.44783 z m -7.461511,-19.25668 c 0.260655,-0.18256 0.47392,-0.42027 0.47392,-0.52821 0,-0.10795 -0.863607,-0.93077 -1.919128,-1.8285 -1.316598,-1.11978 -1.917045,-1.77405 -1.912495,-2.08394 0.0038,-0.25672 0.744593,-1.28003 1.716352,-2.37082 2.094623,-2.35117 3.49056,-4.13331 3.348706,-4.27516 -0.240419,-0.24043 -0.757592,0.21837 -1.766526,1.56711 -0.5864,0.78391 -1.966605,2.47188 -3.067121,3.75108 l -2.00094,2.32581 0.933299,0.7678 c 0.513313,0.42229 1.484871,1.27157 2.159014,1.88729 0.674145,0.61572 1.301156,1.11949 1.393358,1.11949 0.0922,0 0.380907,-0.14937 0.641561,-0.33195 z m 3.775462,-1.1567 c 0.472161,-0.52173 0.427951,-0.58169 -1.840033,-2.49561 -0.921111,-0.77731 -1.673413,-1.56622 -1.671786,-1.75313 0.0017,-0.18692 0.681866,-1.10749 1.511641,-2.04573 1.930026,-2.18232 3.816308,-4.48641 3.816308,-4.66163 0,-0.0749 -0.13968,-0.13619 -0.310399,-0.13619 -0.17072,0 -1.052723,0.93557 -1.960007,2.07905 -0.907286,1.14348 -2.305266,2.83964 -3.106621,3.76923 -0.801358,0.9296 -1.426358,1.78215 -1.388892,1.89454 0.104307,0.31292 4.068388,3.75621 4.333961,3.76458 0.128424,0.004 0.405545,-0.18275 0.615828,-0.41511 z m 33.796252,-0.52109 c -0.28681,-0.28682 -0.50013,0.004 -0.3294,0.44861 0.1225,0.31924 0.17372,0.329 0.33731,0.0643 0.11636,-0.18825 0.11321,-0.39178 -0.008,-0.51289 z m -11.91627,-11.12904 c 0.94538,-0.63493 2.30434,-2.79787 2.03336,-3.23632 -0.0762,-0.12322 -0.71004,0.0106 -1.57013,0.33154 -1.19782,0.44692 -1.84018,0.54206 -3.78802,0.56105 -1.290087,0.0126 -2.753427,-0.0502 -3.251857,-0.13957 -0.74297,-0.13318 -0.90626,-0.1035 -0.90626,0.16469 0,0.51187 1.7211,2.25792 2.66546,2.70411 1.318357,0.6229 3.586187,0.44142 4.817447,-0.3855 z m -28.64022,31.21845 c -1.468941,-2.24189 -3.130008,-6.73057 -3.684486,-9.95655 -0.356924,-2.07659 -0.505875,-7.22758 -0.233357,-8.06981 0.171981,-0.53152 1.046792,-0.67118 1.335636,-0.21324 0.09247,0.1466 0.183513,1.65792 0.202327,3.35848 0.05216,4.71495 0.887272,8.27553 2.883348,12.29349 0.591486,1.19061 1.04177,2.34208 1.00063,2.55883 -0.116202,0.61225 -1.109344,0.63126 -1.504098,0.0288 z m 3.580545,-33.3413 c -0.50537,-0.50537 -0.418598,-0.78089 0.571169,-1.81365 4.655999,-4.8582 11.755074,-7.84236 18.711499,-7.86553 3.302457,-0.011 7.768067,0.97198 10.890267,2.39719 1.76433,0.80537 2.21545,1.21401 2.02002,1.82976 -0.22046,0.69463 -0.61041,0.6654 -2.49798,-0.18724 -6.74443,-3.04654 -14.092847,-3.08055 -20.59204,-0.0953 -2.217857,1.01873 -4.81475,2.77332 -6.717148,4.53845 -0.907762,0.84227 -1.740525,1.53139 -1.850589,1.53139 -0.110062,0 -0.350902,-0.15079 -0.535198,-0.33509 z"
           id="path826-42"
           inkscape:connector-curvature="0"
           clip-path="url(#clipPath1118-8)" />
      </g>
    </g>
  </g>
</svg>
